<?xml version="1.0" standalone="no"?>
<!DOCTYPE svg PUBLIC "-//W3C//DTD SVG 20010904//EN"
 "http://www.w3.org/TR/2001/REC-SVG-20010904/DTD/svg10.dtd">
<svg version="1.0" xmlns="http://www.w3.org/2000/svg"
 width="600.000000pt" height="686.000000pt" viewBox="0 0 600.000000 686.000000"
 preserveAspectRatio="xMidYMid meet">
<metadata>
Created by potrace 1.11, written by Peter Selinger 2001-2013
</metadata>
<g transform="translate(0.000000,686.000000) scale(0.100000,-0.100000)"
fill="#000000" stroke="none">
<path d="M0 3675 c0 -1953 4 -3185 9 -3185 12 0 41 28 41 39 0 15 172 182 196
192 13 4 24 15 24 22 0 22 135 77 187 77 12 0 23 4 25 8 4 10 113 68 147 77
14 4 33 15 44 25 10 10 40 21 65 25 51 8 122 40 122 55 0 6 6 10 14 10 29 0
134 52 139 69 4 16 121 81 146 81 6 0 11 5 11 10 0 6 8 10 17 10 20 0 123 60
123 72 0 4 6 8 14 8 13 0 116 65 126 80 3 4 34 20 70 35 36 15 69 31 74 36 6
5 16 9 24 9 8 0 22 8 31 18 27 29 68 42 137 42 90 0 143 33 144 90 0 14 12 57
26 95 14 39 29 87 34 108 4 21 13 44 19 50 6 6 11 23 11 37 0 14 5 31 11 37
14 14 7 145 -8 150 -6 2 -20 12 -31 21 -11 9 -30 24 -41 32 -12 8 -21 20 -21
26 0 6 -13 22 -30 35 -16 13 -30 29 -30 35 0 6 -13 25 -30 42 -16 18 -30 37
-30 43 0 6 -18 28 -41 49 -34 32 -42 46 -48 91 -4 30 -16 72 -28 94 -11 22
-28 60 -38 85 -9 25 -23 60 -31 78 -8 18 -14 41 -14 50 0 10 -11 45 -23 78
-13 33 -26 89 -29 125 -3 36 -13 79 -22 96 -9 19 -16 56 -16 89 0 32 -5 74
-11 93 -15 49 -52 121 -61 121 -12 0 -68 62 -68 75 0 7 -6 15 -14 18 -7 3 -24
27 -37 54 -12 26 -29 54 -36 61 -7 7 -15 25 -19 40 -3 15 -14 54 -25 87 -12
33 -24 92 -28 130 -4 39 -13 80 -19 92 -7 13 -12 69 -12 140 0 70 -7 147 -16
188 -29 132 -29 149 0 172 29 23 46 62 46 101 -1 49 18 204 29 231 5 14 13 56
16 94 4 37 10 67 15 67 21 0 50 118 60 245 4 55 12 120 18 145 6 25 15 74 21
110 10 64 40 193 60 258 5 17 19 44 30 58 12 15 21 37 21 51 0 21 24 70 41 83
3 3 14 19 23 37 12 25 16 62 16 167 0 149 13 197 73 260 15 16 27 32 27 36 0
4 24 20 53 35 28 16 69 45 90 66 26 25 49 38 75 42 56 7 156 31 162 38 3 4 29
10 58 14 42 6 62 15 89 41 26 25 43 34 70 34 19 0 43 4 53 10 10 5 49 11 87
11 37 1 79 7 93 14 52 26 99 35 174 35 63 0 87 -5 131 -26 30 -15 63 -35 74
-45 17 -16 36 -19 111 -19 53 0 90 4 90 10 0 14 147 13 152 -1 2 -6 26 -15 54
-20 28 -5 68 -18 89 -29 22 -11 50 -20 62 -20 13 0 23 -4 23 -10 0 -5 7 -10
14 -10 8 0 27 -11 42 -25 15 -14 38 -25 52 -25 31 0 92 -21 92 -32 0 -4 7 -8
16 -8 8 0 21 -6 29 -12 7 -7 27 -24 44 -37 17 -13 31 -29 31 -37 0 -8 4 -14 8
-14 9 0 49 -31 105 -82 22 -21 44 -38 48 -38 4 0 11 -13 17 -28 5 -16 33 -53
61 -83 38 -41 56 -70 71 -119 12 -36 29 -76 39 -90 24 -34 111 -217 111 -234
0 -7 9 -25 20 -39 11 -14 20 -30 20 -36 0 -6 5 -11 10 -11 6 0 10 -6 10 -14 0
-16 53 -76 67 -76 15 0 43 -35 43 -53 0 -9 20 -58 43 -109 24 -51 52 -113 61
-138 23 -58 78 -173 87 -180 3 -3 9 -17 12 -31 4 -15 18 -37 32 -50 13 -13 25
-31 25 -40 0 -8 7 -24 15 -35 8 -10 15 -31 15 -46 0 -15 6 -33 13 -40 8 -7 17
-25 20 -40 4 -15 15 -35 26 -45 10 -10 28 -37 41 -60 13 -24 27 -43 31 -43 21
0 50 -93 56 -177 3 -52 13 -105 24 -130 22 -48 25 -119 7 -125 -9 -3 -15 -51
-20 -169 -7 -166 -14 -219 -28 -219 -5 0 -18 -21 -31 -46 -24 -50 -24 -83 1
-329 10 -99 20 -295 19 -409 0 -68 -22 -162 -44 -186 -8 -9 -15 -24 -15 -33 0
-10 -8 -17 -19 -17 -10 0 -24 -7 -31 -15 -7 -8 -17 -15 -22 -15 -9 0 -68 -39
-78 -51 -19 -23 -76 -39 -143 -39 -68 0 -75 2 -87 25 -15 28 -47 42 -61 28 -6
-6 -9 -43 -7 -84 l3 -74 44 -3 c26 -2 60 3 81 13 24 11 56 15 95 13 l60 -3 6
-38 c3 -21 11 -43 18 -50 6 -6 11 -20 11 -32 0 -12 7 -30 15 -41 8 -10 15 -27
15 -36 0 -29 67 -149 107 -192 21 -23 47 -54 58 -69 20 -27 55 -37 55 -16 0
23 58 -49 65 -80 6 -27 13 -32 63 -47 31 -9 67 -20 80 -25 13 -5 34 -9 47 -9
14 0 25 -4 25 -9 0 -5 28 -19 63 -31 110 -39 119 -43 136 -61 9 -9 52 -32 96
-50 44 -18 82 -35 85 -39 3 -3 25 -12 50 -19 52 -15 128 -50 148 -68 7 -7 30
-17 52 -23 24 -7 50 -24 68 -46 19 -23 43 -39 66 -44 l36 -8 0 2689 0 2689
-3000 0 -3000 0 0 -3185z"/>
</g>
</svg>
