<?xml version="1.0" standalone="no"?>
<!DOCTYPE svg PUBLIC "-//W3C//DTD SVG 20010904//EN"
 "http://www.w3.org/TR/2001/REC-SVG-20010904/DTD/svg10.dtd">
<svg version="1.0" xmlns="http://www.w3.org/2000/svg"
 width="600.000000pt" height="686.000000pt" viewBox="0 0 600.000000 686.000000"
 preserveAspectRatio="xMidYMid meet">
<metadata>
Created by potrace 1.11, written by Peter Selinger 2001-2013
</metadata>
<g transform="translate(0.000000,686.000000) scale(0.100000,-0.100000)"
fill="#000000" stroke="none">
<path d="M10 4723 c0 -1176 -3 -2588 -6 -3138 l-7 -1000 92 97 c112 119 143
139 328 219 204 88 651 311 808 404 178 105 297 164 475 235 83 33 161 67 174
75 16 11 41 64 85 182 35 93 67 172 71 177 5 4 16 -4 25 -18 10 -14 23 -26 31
-26 30 0 75 -123 89 -243 5 -34 13 -61 21 -64 19 -7 34 -94 37 -216 2 -94 0
-110 -15 -118 -20 -11 -24 -44 -8 -54 6 -4 8 -11 4 -16 -3 -5 -9 -7 -14 -4
-14 9 -22 -33 -11 -54 8 -13 8 -28 1 -46 -12 -31 -13 -105 -2 -122 4 -6 16
-11 26 -10 23 2 33 -26 35 -90 1 -32 5 -43 16 -43 23 0 29 26 17 68 -26 88
-25 97 20 120 30 15 47 18 60 11 26 -14 107 -114 170 -210 30 -46 88 -135 128
-196 41 -62 77 -113 82 -113 22 0 2 54 -52 144 -33 54 -62 114 -66 132 -4 23
-12 34 -24 34 -18 0 -50 30 -50 47 0 17 29 24 51 13 10 -6 26 -25 35 -43 9
-18 37 -65 62 -105 l47 -74 17 22 c10 12 18 29 18 36 0 10 7 13 25 8 24 -6 25
-4 25 35 0 23 5 41 11 41 6 0 8 -7 5 -15 -3 -9 1 -18 9 -21 8 -4 15 -13 15
-21 0 -19 30 -13 44 10 9 14 7 21 -6 31 -25 19 -22 29 6 24 19 -4 33 3 54 26
37 39 82 107 82 123 0 7 -20 24 -45 39 -25 14 -45 32 -45 40 0 19 -29 18 -37
-1 -7 -19 18 -40 71 -58 l39 -13 -36 -22 c-23 -13 -37 -29 -37 -42 0 -15 -7
-20 -26 -20 -23 0 -26 3 -22 29 4 25 1 30 -21 34 -14 3 -52 12 -84 21 -70 19
-65 19 -69 0 -3 -14 -7 -13 -30 5 -24 19 -48 27 -48 17 0 -3 10 -22 22 -42
l22 -37 -25 7 c-13 5 -39 10 -57 13 -26 4 -32 9 -26 22 13 31 16 69 5 75 -7 5
-11 -2 -11 -18 0 -14 -4 -27 -9 -30 -9 -6 -41 52 -41 73 0 6 -18 31 -39 54
-58 63 -101 152 -101 209 0 26 -4 50 -10 53 -5 3 -10 16 -10 28 0 25 -37 131
-69 196 -11 25 -21 53 -21 62 0 10 -4 20 -9 23 -5 3 -11 21 -13 40 -4 34 -3
35 27 29 16 -3 48 -15 70 -26 21 -11 63 -28 92 -38 29 -10 63 -25 75 -33 12
-9 43 -16 68 -16 53 0 73 -10 64 -33 -7 -18 11 -24 21 -7 10 16 19 12 32 -16
15 -32 8 -48 -18 -41 -27 7 -24 -19 4 -37 12 -7 45 -21 72 -30 57 -18 122 -67
135 -102 10 -26 62 -38 140 -32 44 3 45 3 50 -32 5 -32 7 -33 17 -15 6 11 16
45 22 75 19 90 40 146 66 170 13 12 29 19 35 15 19 -12 44 -79 31 -83 -19 -6
-12 -31 14 -48 19 -13 25 -25 27 -67 3 -49 5 -52 33 -57 30 -6 30 -6 -15 -22
l-45 -16 64 -18 c35 -10 66 -24 69 -32 3 -8 -2 -29 -11 -46 -8 -17 -18 -49
-21 -71 -4 -29 -14 -48 -38 -68 -80 -67 -188 -182 -188 -199 0 -13 -51 -85
-90 -128 -64 -71 -125 -144 -135 -160 -19 -33 -114 -140 -175 -197 -56 -53
-74 -83 -50 -83 6 0 10 9 10 20 0 15 7 20 29 20 23 0 30 5 33 23 2 14 11 23
25 25 22 3 147 127 180 179 39 61 139 177 165 192 15 9 28 24 28 34 0 9 6 17
14 17 8 0 16 6 19 13 2 6 8 9 12 5 12 -12 -410 -536 -428 -530 -4 1 -6 -1 -3
-6 8 -13 -100 -121 -128 -128 -16 -4 -26 -13 -26 -24 0 -10 -7 -23 -15 -30 -8
-7 -15 -27 -15 -44 1 -29 1 -30 15 -12 15 20 15 20 30 0 13 -18 14 -16 15 21
0 55 11 69 36 50 25 -19 35 -19 28 0 -4 9 31 53 98 122 56 60 134 145 171 189
71 86 401 404 417 404 15 0 13 -5 -20 -58 -38 -63 -38 -88 0 -42 51 61 84 138
88 204 2 34 6 68 9 76 7 21 5 549 -3 574 -4 12 -13 28 -21 38 -9 9 -13 31 -11
54 3 35 6 38 50 51 31 9 54 23 69 44 12 17 32 34 45 39 13 5 24 17 24 25 0 9
16 37 35 62 19 25 35 51 35 57 0 6 17 20 37 31 21 11 48 36 61 55 l23 35 -22
5 c-21 5 -20 7 15 38 20 17 49 35 64 39 15 3 35 17 45 29 21 27 190 167 297
245 190 139 258 166 334 134 17 -7 18 -5 12 18 -5 21 -3 25 9 20 19 -7 54 -73
88 -170 34 -93 59 -132 153 -238 l77 -86 -186 -183 c-103 -100 -187 -186 -187
-190 0 -18 69 36 134 105 39 42 113 116 163 164 l93 87 20 -35 c22 -38 53 -54
220 -114 127 -46 468 -197 663 -294 87 -44 160 -79 162 -79 3 0 5 1195 5 2655
l0 2655 -2995 0 -2995 0 0 -2137z m2655 697 c113 -14 114 -15 128 -32 6 -8 27
-21 45 -28 48 -19 75 -61 66 -105 -3 -19 -11 -35 -17 -35 -6 0 -2 -6 8 -14 16
-11 17 -16 7 -29 -11 -13 -9 -17 14 -29 35 -17 92 -96 93 -128 1 -14 8 -38 16
-54 10 -20 12 -33 6 -39 -7 -7 -14 -1 -20 16 -7 18 -18 27 -33 27 -21 0 -21
-1 8 -31 28 -30 29 -33 32 -151 3 -82 0 -118 -7 -114 -5 4 -8 13 -4 21 3 8 0
15 -6 15 -6 0 -14 -17 -17 -38 -5 -33 -11 -41 -43 -52 -76 -27 -120 -52 -115
-65 3 -7 -7 -21 -22 -32 -14 -10 -37 -28 -51 -40 -13 -13 -36 -23 -52 -23 -15
0 -36 -6 -46 -14 -10 -7 -26 -11 -36 -9 -24 7 -53 -39 -45 -71 4 -16 1 -26 -9
-30 -8 -3 -15 -17 -15 -31 0 -14 -11 -37 -24 -50 -21 -21 -22 -26 -10 -36 8
-7 12 -19 9 -27 -3 -8 0 -21 7 -29 6 -8 13 -35 14 -59 2 -24 8 -52 14 -63 5
-11 10 -31 10 -45 0 -14 4 -27 9 -31 5 -3 10 -30 10 -61 0 -30 4 -61 10 -68 5
-6 13 -31 17 -54 5 -35 3 -45 -12 -57 -18 -14 -18 -14 2 -15 26 0 34 -18 34
-72 0 -34 2 -39 14 -29 12 10 20 9 40 -4 17 -11 35 -14 59 -10 29 6 40 2 68
-24 l34 -30 -55 14 c-99 26 -152 23 -201 -10 -24 -17 -52 -40 -61 -51 -10 -12
-44 -37 -76 -56 -59 -35 -59 -35 -83 -16 l-24 19 29 -7 c21 -5 27 -4 22 5 -4
6 -22 11 -39 11 -53 -1 -197 -69 -197 -93 0 -15 77 -48 101 -43 32 6 53 -12
38 -34 -7 -12 -11 -12 -17 -3 -6 10 -12 10 -28 -2 -10 -8 -32 -15 -49 -15 -16
0 -45 -9 -63 -20 -18 -11 -43 -20 -55 -20 -12 0 -40 -9 -62 -21 -21 -12 -57
-27 -79 -34 -45 -13 -75 -37 -177 -137 -67 -67 -91 -78 -134 -62 -18 7 -57 78
-48 88 4 3 2 6 -4 6 -6 0 -8 11 -6 24 3 14 0 41 -7 61 -7 20 -16 71 -20 113
-4 43 -15 113 -24 157 -9 44 -21 126 -28 183 -6 56 -15 102 -19 102 -9 0 -7
15 22 164 11 56 20 149 21 215 1 102 2 108 7 46 l6 -70 13 116 c6 63 12 165
12 226 0 117 20 232 50 293 13 26 35 44 83 69 73 38 187 125 219 168 29 39 43
52 34 33 -4 -8 11 5 34 30 23 25 49 61 57 79 21 49 236 275 297 312 62 39 114
47 148 25 23 -15 26 -15 41 2 10 10 14 22 10 26 -5 4 3 5 17 2 14 -4 61 -11
105 -16z m1007 -1362 c52 -17 74 -33 123 -85 52 -56 60 -69 59 -103 -1 -21 -9
-48 -18 -61 -9 -13 -16 -34 -16 -47 0 -60 -23 -71 -225 -111 l-130 -26 -13
-40 c-16 -49 -45 -81 -96 -107 -64 -33 -132 -23 -156 22 -5 10 -45 43 -88 73
-100 71 -120 106 -134 234 -11 93 -13 99 -51 140 -49 53 -42 65 40 69 32 2 50
1 41 -2 -29 -9 -21 -24 13 -24 17 0 40 -5 52 -12 28 -14 75 -19 83 -7 3 5 25
9 50 9 52 0 84 14 84 36 0 11 4 12 19 4 29 -15 59 -12 69 6 7 13 19 16 55 12
47 -6 69 5 60 28 -9 23 106 18 179 -8z m-662 -1149 c0 -23 -42 -69 -65 -69
-10 0 -15 10 -15 30 0 26 -4 30 -26 30 -23 0 -25 -3 -20 -24 10 -42 -9 -74
-51 -85 -51 -15 -56 -14 -70 7 -7 12 -8 33 -3 60 6 37 5 42 -11 42 -26 0 -28
-9 -14 -75 13 -64 7 -85 -26 -85 -22 0 -69 -21 -69 -30 0 -4 7 -13 15 -20 16
-13 23 -11 148 39 25 10 32 8 57 -16 l29 -27 -22 -24 c-29 -31 -119 -82 -145
-82 -11 0 -39 -9 -63 -20 -54 -24 -94 -27 -85 -5 10 26 -12 17 -74 -33 -3 -2
3 -10 14 -17 15 -12 5 -13 -78 -12 -87 2 -117 -4 -83 -16 9 -4 9 -7 0 -17 -10
-11 -15 -11 -28 0 -13 11 -18 8 -36 -14 -25 -32 -73 -36 -89 -7 -5 11 -19 23
-31 26 -16 5 -20 14 -18 40 2 18 -1 39 -7 46 -6 8 -14 22 -17 32 -4 9 -15 17
-26 17 -11 0 -21 9 -25 23 -9 35 -7 153 4 182 l10 26 22 -21 c13 -12 35 -31
51 -42 27 -19 27 -19 27 1 0 30 28 15 32 -17 3 -23 8 -27 39 -28 21 -1 52 -12
75 -28 21 -14 42 -26 46 -26 13 0 9 45 -6 66 -12 16 -18 17 -34 7 -15 -9 -24
-9 -38 1 -11 8 -43 26 -71 41 -41 21 -53 33 -53 50 0 20 7 24 65 34 36 7 83 9
103 6 27 -5 33 -4 22 4 -10 7 25 11 120 15 144 5 212 11 273 21 24 5 43 3 52
-5 12 -10 21 -10 38 -2 34 16 48 19 105 21 46 1 52 -1 52 -20z"/>
<path d="M1785 4460 c-16 -4 -58 -22 -93 -40 -75 -38 -107 -87 -96 -145 3 -20
10 -37 14 -40 15 -10 108 26 133 51 l26 26 108 -12 c109 -12 173 -30 173 -49
0 -15 -26 -27 -142 -67 -175 -61 -254 -108 -229 -137 8 -11 6 -18 -9 -32 -11
-10 -20 -22 -20 -27 0 -13 50 -4 59 11 5 8 37 15 76 18 43 4 69 11 72 19 7 20
26 17 46 -6 10 -12 30 -20 49 -21 18 0 51 -2 72 -4 22 -3 46 1 53 7 9 7 13 7
13 -1 0 -12 -13 -16 -120 -35 l-75 -14 72 -1 c47 -1 73 -5 75 -13 6 -17 88
-17 88 -1 0 7 18 24 40 38 38 24 80 87 80 120 0 9 9 15 25 15 14 0 34 9 46 21
17 17 19 28 14 62 -10 59 -31 94 -65 112 -17 9 -30 21 -30 28 0 16 -45 59 -79
77 -35 18 -226 50 -290 49 -31 -1 -69 -5 -86 -9z"/>
<path d="M1996 1781 c-21 -15 -45 -41 -54 -56 -13 -26 -13 -30 4 -42 16 -12
17 -16 5 -34 -9 -16 -10 -24 -1 -33 16 -16 31 11 28 53 -4 48 16 49 35 1 8
-22 11 -40 6 -40 -5 0 -9 -5 -9 -10 0 -6 15 -4 36 5 44 18 51 14 60 -30 3 -19
10 -35 15 -35 10 0 11 8 14 85 1 28 5 69 10 91 6 36 5 43 -16 58 -35 24 -88
19 -133 -13z"/>
<path d="M4319 1512 c-79 -76 -236 -222 -349 -324 -113 -102 -234 -217 -270
-254 -36 -38 -78 -79 -95 -91 -28 -21 -29 -22 -8 -22 15 -1 39 17 70 51 70 77
132 137 199 192 54 45 129 112 298 266 34 30 92 89 131 130 38 41 94 99 124
128 29 29 52 55 49 57 -2 3 -69 -57 -149 -133z"/>
</g>
</svg>
