<?xml version="1.0" standalone="no"?>
<!DOCTYPE svg PUBLIC "-//W3C//DTD SVG 20010904//EN"
 "http://www.w3.org/TR/2001/REC-SVG-20010904/DTD/svg10.dtd">
<svg version="1.0" xmlns="http://www.w3.org/2000/svg"
 width="500.000000pt" height="575.000000pt" viewBox="0 0 500.000000 575.000000"
 preserveAspectRatio="xMidYMid meet">
<metadata>
Created by potrace 1.11, written by Peter Selinger 2001-2013
</metadata>
<g transform="translate(0.000000,575.000000) scale(0.100000,-0.100000)"
fill="#000000" stroke="none">
<path d="M2069 5580 c-7 -5 -18 -6 -26 -3 -15 6 -101 -15 -119 -28 -6 -5 -31
-11 -55 -14 -72 -8 -93 -12 -110 -19 -10 -4 -20 -3 -23 3 -4 7 -15 7 -31 1
-16 -6 -27 -6 -31 1 -4 7 -10 6 -19 -1 -8 -7 -23 -9 -35 -5 -11 4 -20 2 -20
-4 0 -6 -20 -11 -47 -11 -43 0 -50 -4 -92 -48 -71 -75 -101 -111 -101 -122 0
-5 -4 -10 -10 -10 -5 0 -10 -8 -10 -18 0 -10 -13 -39 -29 -63 -22 -35 -26 -50
-19 -63 17 -30 5 -206 -13 -206 -6 0 -9 -10 -8 -22 5 -62 -2 -89 -34 -125 -50
-57 -59 -83 -57 -172 1 -30 -2 -57 -7 -60 -4 -3 -17 -24 -29 -47 -14 -28 -17
-45 -11 -56 7 -11 4 -23 -13 -45 -12 -17 -19 -36 -16 -42 4 -6 0 -21 -9 -34
-11 -17 -16 -51 -17 -113 -1 -87 -10 -121 -36 -137 -7 -5 -10 -13 -6 -18 3 -5
1 -15 -4 -22 -12 -15 -25 -140 -24 -223 1 -61 1 -63 -46 -120 -15 -17 -8 -460
7 -478 7 -9 11 -23 7 -31 -3 -8 -2 -15 3 -15 11 0 36 -59 28 -66 -3 -4 5 -24
19 -45 13 -21 24 -43 24 -48 0 -5 11 -19 25 -32 13 -13 25 -29 25 -35 0 -6 15
-31 34 -55 40 -53 44 -76 48 -293 2 -123 7 -171 16 -174 6 -2 12 -8 12 -12 0
-5 11 -26 25 -46 14 -20 23 -40 20 -44 -3 -4 2 -11 11 -14 9 -3 14 -12 11 -19
-2 -6 6 -27 20 -45 13 -17 22 -36 19 -41 -3 -5 1 -11 9 -15 8 -3 15 -13 15
-21 0 -9 5 -13 10 -10 6 3 10 -2 10 -12 0 -10 17 -36 38 -59 46 -51 65 -82 57
-94 -4 -6 3 -23 14 -39 12 -16 21 -36 21 -44 0 -8 9 -17 20 -20 12 -3 18 -11
15 -19 -7 -18 20 -42 35 -33 9 6 14 -7 11 -28 -1 -4 6 -10 14 -13 8 -3 12 -10
9 -15 -3 -6 0 -16 6 -24 7 -8 10 -22 6 -30 -3 -9 1 -18 9 -21 8 -4 15 -12 15
-19 0 -7 5 -15 12 -17 9 -3 9 -18 0 -63 -7 -32 -12 -77 -12 -99 -1 -42 -18
-76 -39 -76 -6 0 -11 -6 -11 -12 0 -21 -56 -78 -77 -78 -11 0 -28 -7 -39 -15
-10 -8 -30 -15 -44 -15 -14 0 -38 -7 -54 -15 -15 -8 -37 -15 -48 -15 -12 0
-18 -6 -16 -17 2 -12 -7 -21 -29 -28 -18 -6 -36 -15 -40 -19 -4 -5 0 -6 10 -3
11 4 16 3 12 -3 -3 -6 -17 -7 -31 -4 -16 4 -24 2 -24 -7 -1 -15 -76 -66 -91
-62 -5 2 -9 -3 -9 -11 0 -21 -21 -31 -32 -15 -7 10 -8 8 -3 -7 5 -18 -4 -26
-60 -53 -36 -18 -72 -31 -78 -28 -7 3 -21 -1 -31 -8 -10 -8 -24 -11 -32 -8 -9
3 -14 0 -12 -8 2 -8 -3 -13 -10 -11 -7 1 -15 -5 -18 -13 -4 -8 -14 -15 -24
-15 -10 0 -35 -16 -56 -35 -21 -20 -44 -33 -51 -30 -16 6 -63 -15 -63 -28 0
-5 -12 -6 -26 -3 -14 4 -23 3 -20 -2 9 -15 -70 -42 -83 -29 -8 8 -11 6 -11 -7
0 -9 -5 -14 -11 -11 -5 4 -26 -9 -45 -29 -19 -20 -52 -40 -75 -46 -22 -6 -50
-22 -61 -35 -26 -30 -74 -47 -126 -44 -37 3 -44 -2 -103 -63 l-64 -67 -3 -269
-3 -270 23 -16 c20 -15 253 -16 2500 -16 l2478 0 0 694 c0 382 -3 701 -6 710
-3 9 -10 13 -15 10 -5 -3 -12 2 -15 10 -3 9 -10 13 -15 10 -5 -3 -24 6 -41 20
-18 13 -50 27 -70 31 -21 4 -38 10 -38 14 0 3 -12 11 -27 17 -81 31 -100 37
-125 36 -16 -1 -28 3 -28 8 0 6 -5 10 -12 10 -23 0 -128 35 -128 42 0 4 -8 8
-18 8 -10 0 -27 8 -38 19 -27 24 -59 41 -79 41 -9 0 -30 9 -45 20 -19 13 -31
17 -35 10 -8 -13 -35 3 -82 47 -45 41 -61 53 -72 53 -12 0 -71 56 -71 66 0 4
-6 15 -14 23 -21 24 -58 93 -52 98 3 3 -9 23 -25 46 -16 22 -29 52 -29 67 0
15 -11 39 -25 54 -31 33 -31 40 -3 33 15 -4 33 2 56 19 18 14 36 24 38 21 7
-7 44 30 44 43 0 6 7 10 15 10 8 0 15 9 15 20 0 11 5 20 10 20 6 0 10 7 10 15
0 8 4 15 9 15 11 0 12 249 1 270 -5 9 -5 22 0 30 5 8 4 22 -1 33 -7 12 -7 23
1 32 7 8 7 15 1 19 -12 8 -10 205 2 224 5 6 4 12 -1 12 -12 0 -25 43 -27 85 0
17 7 45 17 63 10 18 16 38 12 43 -3 5 3 25 14 43 15 25 17 37 9 45 -9 9 -9 16
0 30 8 13 8 22 1 29 -6 6 -7 18 -3 29 5 10 7 23 5 28 -7 26 -6 97 2 101 5 3 5
11 -1 17 -5 7 -9 50 -10 97 0 97 -9 169 -23 187 -5 7 -7 17 -3 23 3 5 1 10 -5
10 -32 0 -99 110 -100 163 0 11 -16 37 -35 60 -21 25 -35 50 -33 62 1 12 -6
35 -17 51 -26 38 -45 74 -40 74 3 0 -4 16 -15 35 -11 20 -20 44 -20 55 0 11
-4 20 -10 20 -5 0 -10 6 -10 13 0 6 -9 23 -20 37 -11 14 -20 34 -20 46 0 11
-13 41 -30 67 -16 26 -30 52 -30 57 0 6 -5 10 -10 10 -6 0 -14 8 -17 18 -4 9
-17 27 -30 39 -13 12 -23 25 -23 28 0 4 -9 18 -20 32 -11 14 -20 35 -20 47 0
11 -9 36 -20 53 -11 18 -17 39 -14 48 4 8 2 15 -3 15 -9 0 -46 81 -41 91 2 3
-9 22 -24 42 -16 19 -28 40 -28 46 0 6 -4 11 -9 11 -10 0 -66 82 -63 93 1 4
-5 10 -13 13 -8 4 -15 12 -15 20 0 8 -7 14 -15 14 -31 0 -66 24 -62 42 3 10 1
18 -4 18 -5 0 -9 6 -9 13 0 13 -34 47 -48 47 -4 1 -18 14 -32 30 -13 17 -29
30 -35 30 -6 0 -20 8 -31 19 -23 20 -62 36 -82 32 -13 -2 -95 39 -100 52 -2 4
-13 7 -25 7 -12 0 -33 9 -47 20 -14 11 -33 20 -42 20 -10 0 -18 5 -18 11 0 5
-4 7 -10 4 -5 -3 -25 6 -44 20 -19 15 -37 22 -40 16 -4 -5 -25 -8 -49 -6 -123
11 -159 16 -184 27 -32 13 -384 20 -404 8z m78 -1175 c-21 -15 -22 -35 -2 -35
8 0 15 -7 15 -15 0 -7 8 -18 18 -24 16 -9 16 -10 0 -16 -21 -8 -24 -31 -5 -38
7 -2 8 -8 3 -13 -5 -5 -11 -4 -13 4 -5 14 -33 16 -33 2 0 -12 33 -46 50 -52 9
-3 8 -7 -4 -17 -14 -11 -16 -11 -16 3 0 9 -7 16 -15 16 -21 0 -19 -16 5 -40
11 -11 25 -20 30 -20 6 0 10 -7 10 -15 0 -8 7 -15 15 -15 8 0 15 5 15 10 0 6
8 10 18 10 16 -1 16 -1 0 -14 -10 -7 -18 -18 -18 -25 0 -6 -7 -11 -15 -11 -8
0 -15 -7 -15 -15 0 -8 -7 -15 -15 -15 -8 0 -15 7 -15 15 0 8 -7 15 -15 15 -21
0 -19 -16 6 -41 19 -19 25 -20 43 -9 14 9 21 10 24 1 5 -14 32 -15 32 -1 0 6
8 10 18 10 15 -1 15 -2 -3 -16 -17 -12 -18 -18 -7 -34 10 -17 9 -24 -7 -41
-12 -13 -21 -17 -26 -10 -3 6 1 14 9 17 20 8 21 34 1 34 -8 0 -15 -7 -15 -15
0 -8 -7 -15 -15 -15 -20 0 -19 -20 3 -36 16 -12 16 -13 0 -19 -22 -9 -24 -35
-3 -35 8 0 15 -7 15 -15 0 -8 -7 -15 -15 -15 -8 0 -15 -7 -15 -15 0 -8 -7 -15
-15 -15 -8 0 -15 -7 -15 -15 0 -8 -7 -15 -15 -15 -8 0 -15 -7 -15 -15 0 -20
26 -19 34 1 3 8 11 12 17 9 7 -5 3 -14 -10 -26 -22 -21 -41 -25 -41 -9 0 6 -7
10 -15 10 -8 0 -15 -4 -15 -10 0 -5 -8 -10 -17 -10 -17 1 -17 1 0 14 9 7 17
18 17 25 0 17 -21 13 -36 -6 -12 -17 -13 -17 -19 0 -9 21 -35 23 -35 2 0 -8
-7 -15 -15 -15 -8 0 -15 -4 -15 -10 0 -5 -9 -14 -20 -20 -15 -8 -18 -8 -14 4
3 7 -6 26 -20 41 -27 29 -33 45 -16 45 6 0 10 7 10 15 0 21 -28 19 -32 -2 -3
-15 -4 -15 -20 1 -11 11 -26 15 -40 12 -13 -3 -17 -3 -10 0 6 3 12 12 12 20 0
20 -28 18 -32 -3 -3 -16 -4 -16 -20 0 -18 19 -38 22 -38 7 0 -5 -7 -10 -15
-10 -8 0 -15 5 -15 10 0 6 -7 10 -15 10 -8 0 -15 -4 -15 -10 0 -5 -7 -10 -15
-10 -8 0 -15 5 -15 10 0 6 -7 10 -15 10 -8 0 -15 -7 -15 -15 0 -8 -7 -15 -15
-15 -8 0 -15 7 -15 15 0 8 -7 15 -15 15 -8 0 -15 -7 -15 -15 0 -8 -7 -15 -15
-15 -8 0 -15 7 -15 15 0 8 -7 15 -15 15 -18 0 -20 -26 -2 -34 6 -3 0 -3 -15 0
-17 4 -28 2 -28 -5 0 -6 -7 -11 -15 -11 -8 0 -15 5 -15 10 0 16 -22 12 -35 -6
-11 -16 -12 -16 -18 0 -4 9 -2 16 3 16 13 0 50 37 50 50 0 6 7 10 15 10 8 0
15 7 15 15 0 8 5 15 10 15 13 0 50 37 50 50 0 6 7 10 15 10 8 0 15 -7 15 -15
0 -8 7 -15 15 -15 8 0 15 7 15 15 0 8 7 15 15 15 20 0 19 20 -2 35 -11 8 -13
14 -4 19 6 4 14 0 17 -8 3 -9 12 -16 20 -16 20 0 17 28 -3 32 -14 3 -12 8 12
33 25 24 30 26 33 12 2 -9 10 -17 18 -17 17 0 19 27 2 33 -8 2 -9 8 -4 13 5 5
11 4 13 -3 6 -18 33 -16 33 2 0 8 -7 15 -15 15 -8 0 -15 4 -15 9 0 5 7 11 15
15 9 3 15 0 15 -9 0 -8 7 -15 15 -15 8 0 15 7 15 15 0 8 7 15 15 15 8 0 15 7
15 15 0 8 7 15 15 15 8 0 15 7 15 15 0 20 -20 19 -36 -2 -7 -10 -16 -14 -21
-10 -4 5 0 13 10 18 9 6 17 17 17 24 0 8 7 15 15 15 8 0 15 7 15 15 0 8 7 15
15 15 8 0 15 7 15 15 0 8 7 15 15 15 18 0 20 27 3 33 -8 2 -9 8 -4 13 5 5 11
4 13 -3 6 -18 33 -16 33 2 0 8 -7 15 -15 15 -8 0 -15 5 -15 10 0 15 17 12 40
-7 24 -21 26 -33 5 -33 -8 0 -15 -7 -15 -15 0 -8 5 -15 10 -15 13 0 50 37 50
50 0 6 7 10 15 10 8 0 15 -5 15 -10 0 -6 -7 -13 -15 -16 -8 -4 -15 -12 -15
-20 0 -8 7 -14 15 -14 8 0 15 7 15 15 0 8 6 15 14 15 8 0 16 7 20 15 3 8 10
15 16 15 5 0 10 -7 10 -15 0 -24 23 -17 49 15 13 16 29 26 34 23 6 -3 3 -11
-6 -18z m-167 -770 c0 -8 7 -15 15 -15 8 0 15 -7 15 -15 0 -8 7 -15 15 -15 8
0 15 -7 15 -15 0 -20 26 -19 34 1 3 8 10 12 16 9 15 -9 12 -25 -5 -25 -8 0
-15 -6 -15 -14 0 -8 7 -16 15 -20 8 -3 15 -10 15 -16 0 -5 -7 -10 -15 -10 -8
0 -15 -7 -15 -15 0 -20 20 -19 36 3 13 16 13 16 14 0 0 -10 -4 -18 -10 -18
-16 0 -12 -27 5 -34 8 -3 15 -10 15 -16 0 -5 -7 -10 -15 -10 -8 0 -15 -7 -15
-15 0 -8 -7 -15 -15 -15 -8 0 -15 -7 -15 -15 0 -8 7 -15 15 -15 8 0 15 -5 15
-10 0 -6 -7 -13 -15 -16 -8 -4 -15 -12 -15 -20 0 -8 -7 -14 -15 -14 -8 0 -15
-7 -15 -15 0 -8 7 -15 15 -15 8 0 15 -7 15 -15 0 -20 26 -19 34 1 3 8 10 12
16 9 15 -9 12 -25 -5 -25 -20 0 -19 -20 3 -36 16 -13 16 -13 0 -14 -10 0 -18
5 -18 10 0 6 -7 10 -15 10 -20 0 -19 -20 3 -36 16 -12 16 -13 0 -19 -21 -8
-24 -35 -4 -35 8 0 17 7 20 16 3 8 11 12 17 8 9 -5 7 -11 -4 -19 -10 -7 -17
-17 -17 -24 0 -6 -7 -11 -15 -11 -8 0 -15 -7 -15 -15 0 -8 7 -15 15 -15 8 0
15 -6 15 -14 0 -8 7 -16 15 -20 12 -4 8 -13 -19 -41 -34 -35 -56 -45 -56 -25
0 6 -7 10 -15 10 -8 0 -15 7 -15 15 0 8 -7 15 -15 15 -8 0 -15 -4 -15 -10 0
-5 -7 -10 -15 -10 -8 0 -15 5 -15 10 0 6 7 10 15 10 8 0 15 7 15 15 0 18 -27
20 -33 3 -2 -8 -8 -9 -13 -4 -5 5 -4 11 4 13 6 3 12 11 12 19 0 8 7 14 15 14
20 0 19 20 -2 36 -17 12 -17 13 0 19 21 9 22 24 0 40 -11 8 -13 14 -4 19 6 4
14 0 17 -8 8 -20 34 -21 34 -1 0 8 -7 15 -15 15 -8 0 -15 5 -15 10 0 6 7 13
15 16 20 8 19 24 -2 40 -17 12 -17 13 0 19 9 4 17 13 17 21 0 8 7 14 15 14 24
0 18 19 -17 50 -27 25 -29 30 -15 36 9 3 17 12 17 20 0 8 7 14 15 14 8 0 15 7
15 15 0 20 -26 19 -34 -1 -3 -8 -11 -12 -17 -8 -9 5 -7 11 4 19 22 16 21 25 0
41 -17 12 -17 13 0 19 21 9 23 35 2 35 -8 0 -15 7 -15 15 0 8 7 15 15 15 8 0
15 7 15 15 0 18 -27 20 -33 3 -2 -7 -8 -9 -13 -5 -5 4 -2 12 6 17 12 8 13 13
3 30 -16 24 -16 30 -3 30 6 0 10 -7 10 -15z m-41 -255 c19 0 12 -15 -19 -40
-33 -28 -37 -45 -14 -54 8 -3 12 -11 8 -17 -5 -9 -11 -7 -19 4 -15 21 -35 22
-35 2 0 -8 7 -15 15 -15 8 0 15 -7 15 -15 0 -8 7 -15 16 -15 17 0 14 -22 -4
-28 -7 -2 -12 3 -12 12 0 9 -7 16 -15 16 -8 0 -15 -7 -15 -15 0 -8 -5 -15 -10
-15 -6 0 -13 7 -16 15 -4 8 -12 15 -20 15 -8 0 -14 -7 -14 -15 0 -8 7 -15 15
-15 8 0 15 -5 15 -10 0 -6 12 -22 26 -35 29 -27 28 -30 -23 -84 -20 -20 -24
-21 -29 -7 -3 9 -12 16 -20 16 -8 0 -14 7 -14 15 0 8 -7 15 -15 15 -23 0 -18
-18 12 -46 14 -13 23 -28 18 -32 -4 -4 -10 -1 -12 6 -6 17 -33 15 -33 -3 0 -8
-7 -15 -15 -15 -8 0 -15 7 -15 15 0 8 -7 15 -15 15 -20 0 -19 -20 3 -36 16
-13 16 -13 0 -14 -10 0 -18 5 -18 10 0 6 -7 10 -15 10 -8 0 -15 7 -15 15 0 8
-7 15 -15 15 -20 0 -19 -20 3 -36 16 -13 16 -13 0 -14 -10 0 -18 5 -18 10 0 6
-7 10 -15 10 -8 0 -15 -7 -15 -15 0 -8 8 -15 17 -15 14 0 15 -2 4 -12 -11 -10
-14 -10 -18 0 -7 17 -33 15 -33 -3 0 -8 7 -15 15 -15 8 0 15 -7 15 -15 0 -8
-5 -15 -10 -15 -6 0 -13 7 -16 15 -4 8 -12 15 -20 15 -8 0 -14 -7 -14 -15 0
-8 -4 -15 -10 -15 -11 0 -50 -36 -50 -46 0 -4 7 -12 17 -19 11 -8 13 -14 4
-19 -6 -4 -14 0 -17 8 -3 9 -12 16 -20 16 -8 0 -14 7 -14 15 0 22 -18 18 -44
-10 -13 -14 -30 -25 -37 -25 -10 1 -9 4 4 14 9 7 17 18 17 25 0 15 -27 14 -33
-1 -2 -8 -8 -9 -13 -4 -5 5 -4 11 4 13 14 5 16 33 2 33 -5 0 -10 7 -10 15 0 8
5 15 10 15 6 0 10 7 10 15 0 8 7 15 15 15 8 0 15 7 15 15 0 20 -20 19 -36 -2
-13 -17 -13 -17 -14 0 0 9 5 17 10 17 6 0 10 7 10 15 0 8 -4 15 -10 15 -5 0
-10 7 -10 15 0 8 5 15 10 15 6 0 10 7 10 15 0 8 -4 15 -10 15 -5 0 -10 8 -10
18 1 16 1 16 14 0 16 -22 36 -23 36 -3 0 8 -7 15 -15 15 -8 0 -15 5 -15 10 0
6 7 13 15 16 8 4 15 12 15 20 0 8 7 14 15 14 8 0 15 7 15 15 0 20 -26 19 -34
-1 -3 -8 -11 -12 -16 -9 -7 4 -2 16 12 31 20 20 25 21 34 9 6 -8 16 -15 23
-15 6 0 11 -7 11 -15 0 -8 7 -15 15 -15 8 0 15 7 15 15 0 8 7 15 15 15 8 0 15
-7 15 -15 0 -22 15 -18 45 10 26 23 28 23 52 8 17 -12 21 -19 12 -22 -7 -2
-15 1 -17 8 -5 14 -32 15 -32 1 0 -13 37 -50 50 -50 6 0 10 7 10 15 0 8 7 15
15 15 8 0 15 7 15 15 0 8 7 15 15 15 8 0 15 -7 15 -15 0 -8 7 -15 15 -15 18 0
20 27 3 33 -8 2 -9 8 -4 13 5 5 11 4 13 -3 3 -7 11 -13 19 -13 8 0 14 6 14 13
0 16 54 41 58 27 2 -5 10 -10 18 -10 17 0 19 27 2 33 -8 2 -9 8 -4 13 5 5 11
4 13 -3 6 -18 33 -16 33 1 0 8 -6 17 -12 20 -7 3 0 2 16 -1 28 -6 29 -5 23 23
-3 16 -4 23 -1 17 8 -18 34 -16 34 1 0 8 -7 17 -16 20 -8 3 -12 11 -8 17 5 9
11 7 19 -4 7 -10 17 -17 24 -17z m881 -105 c0 -8 7 -15 15 -15 8 0 15 -7 15
-15 0 -8 7 -15 15 -15 8 0 15 7 15 15 0 8 5 15 11 15 7 0 17 7 24 16 11 16 12
16 18 0 4 -10 1 -16 -8 -16 -8 0 -15 -7 -15 -15 0 -8 6 -15 14 -15 8 0 16 7
20 15 3 8 10 15 16 15 5 0 10 -7 10 -15 0 -8 7 -15 15 -15 8 0 15 5 15 10 0
16 19 12 42 -10 19 -17 19 -20 5 -20 -9 0 -17 5 -17 10 0 6 -7 10 -15 10 -8 0
-15 -7 -15 -15 0 -8 -7 -15 -15 -15 -8 0 -15 -7 -15 -15 0 -8 -5 -15 -10 -15
-6 0 -13 7 -16 15 -7 17 -34 21 -34 5 0 -5 -7 -10 -15 -10 -8 0 -15 5 -15 10
0 16 -22 12 -36 -7 -7 -10 -16 -14 -21 -10 -4 5 0 14 10 21 21 16 22 36 2 36
-8 0 -15 -7 -15 -15 0 -8 -7 -15 -15 -15 -8 0 -15 7 -15 15 0 8 -7 15 -15 15
-20 0 -19 -20 3 -36 16 -12 16 -13 0 -19 -22 -9 -23 -31 -2 -39 8 -3 12 -10 9
-16 -9 -15 -25 -12 -25 5 0 8 -7 15 -15 15 -22 0 -18 -18 10 -44 14 -13 25
-30 25 -37 -1 -10 -4 -9 -14 4 -7 9 -18 17 -25 17 -6 0 -11 7 -11 15 0 8 -7
15 -15 15 -8 0 -15 -7 -15 -15 0 -8 -5 -15 -10 -15 -6 0 -13 7 -16 15 -8 20
-30 19 -38 -1 -3 -8 -10 -12 -16 -9 -15 9 -12 25 5 25 8 0 15 7 15 15 0 8 -7
15 -15 15 -8 0 -15 7 -15 15 0 8 -7 15 -15 15 -8 0 -15 7 -15 15 0 8 7 15 15
15 8 0 15 7 15 15 0 8 -7 15 -15 15 -8 0 -15 5 -15 10 0 6 7 10 15 10 8 0 15
-4 15 -10 0 -5 7 -10 15 -10 8 0 15 -7 15 -15 0 -21 26 -19 35 3 6 16 7 16 19
0 16 -22 36 -23 36 -3 0 8 -7 15 -15 15 -17 0 -20 16 -5 25 6 3 13 -1 16 -9 8
-20 34 -21 34 -1 0 8 6 15 14 15 8 0 16 7 20 15 3 8 10 15 16 15 5 0 10 -7 10
-15z m-521 -861 c7 -16 7 -24 0 -24 -6 0 -6 -6 1 -19 14 -28 13 -31 -12 -31
-13 0 -37 -9 -55 -19 -28 -18 -33 -18 -44 -5 -12 15 -35 14 -105 -2 -14 -4
-29 2 -42 16 -19 21 -22 21 -37 6 -16 -16 -19 -15 -42 9 -20 19 -29 22 -39 14
-14 -11 -34 -4 -34 12 0 6 -7 17 -15 25 -8 9 -15 19 -15 24 0 14 52 22 60 10
5 -9 13 -8 29 2 19 11 23 11 32 -4 12 -22 42 -23 59 -3 18 21 57 19 70 -5 14
-27 44 -25 62 3 13 19 22 22 65 19 42 -3 52 -8 62 -28z m-341 -980 c12 -4 22
-13 22 -20 0 -20 28 -17 32 3 3 16 4 16 20 0 9 -9 21 -17 27 -17 6 0 11 -7 11
-15 0 -8 7 -15 15 -15 8 0 15 -7 15 -15 0 -8 -7 -15 -15 -15 -8 0 -15 -7 -15
-15 0 -8 7 -15 15 -15 8 0 15 -7 15 -15 0 -22 18 -18 44 10 13 14 27 25 32 25
4 0 3 -5 -4 -12 -17 -17 -15 -38 3 -38 8 0 15 5 15 10 0 6 8 10 18 10 16 -1
16 -1 0 -14 -22 -16 -23 -32 -3 -40 8 -3 15 -10 15 -16 0 -5 -7 -10 -15 -10
-8 0 -15 -7 -15 -15 0 -19 20 -19 34 0 9 12 14 11 34 -10 21 -21 22 -26 8 -31
-9 -3 -16 -10 -16 -15 0 -12 38 -49 50 -49 6 0 10 -7 10 -15 0 -18 27 -20 33
-2 2 7 8 8 13 3 5 -5 4 -11 -3 -13 -7 -3 -13 -11 -13 -19 0 -19 -19 -18 -26 1
-4 8 -12 15 -20 15 -8 0 -14 -7 -14 -15 0 -8 7 -15 15 -15 8 0 15 -7 15 -15 0
-8 -7 -15 -15 -15 -8 0 -15 -7 -15 -15 0 -8 -7 -15 -15 -15 -8 0 -15 7 -15 15
0 8 -7 15 -15 15 -8 0 -15 7 -15 15 0 8 -7 15 -15 15 -8 0 -15 -7 -15 -15 0
-8 -7 -15 -15 -15 -8 0 -15 -7 -15 -15 0 -20 20 -19 36 3 10 12 13 13 14 3 0
-12 -44 -61 -55 -61 -2 0 -1 9 2 20 4 14 0 20 -11 20 -9 0 -16 -7 -16 -15 0
-8 -7 -15 -15 -15 -8 0 -15 -6 -15 -14 0 -8 7 -16 15 -20 8 -3 15 -10 15 -16
0 -5 -7 -10 -15 -10 -8 0 -15 7 -15 16 0 11 -6 15 -19 11 -14 -3 -17 0 -14 14
3 11 0 19 -6 19 -6 0 -11 7 -11 15 0 8 5 15 10 15 6 0 10 7 10 15 0 8 -6 15
-12 15 -7 0 -19 12 -25 27 -10 21 -10 29 0 35 9 7 9 11 -3 21 -25 21 -44 61
-31 65 16 5 13 32 -4 32 -8 0 -15 5 -15 11 0 6 -8 18 -17 27 -16 16 -16 17 0
20 21 4 23 32 3 32 -8 0 -17 -6 -20 -12 -3 -7 -3 -3 0 9 3 12 -1 25 -8 30 -24
15 -38 49 -25 62 9 10 8 15 -5 25 -30 22 -23 36 22 45 3 0 15 -2 28 -5z"/>
<path d="M2040 4355 c0 -8 -7 -15 -15 -15 -8 0 -15 -7 -15 -15 0 -8 -7 -15
-15 -15 -8 0 -15 7 -15 15 0 8 -7 15 -15 15 -8 0 -15 -7 -15 -15 0 -8 -7 -15
-15 -15 -8 0 -15 7 -15 15 0 8 -7 15 -15 15 -8 0 -15 -7 -15 -15 0 -8 -7 -15
-15 -15 -8 0 -15 -7 -15 -15 0 -8 -7 -15 -15 -15 -8 0 -15 -7 -15 -15 0 -8 7
-15 15 -15 8 0 15 -7 15 -15 0 -8 -7 -15 -15 -15 -8 0 -15 -7 -15 -15 0 -8 -7
-15 -15 -15 -8 0 -15 -7 -15 -15 0 -8 -7 -15 -15 -15 -8 0 -15 -7 -15 -15 0
-8 -7 -15 -15 -15 -8 0 -15 -7 -15 -15 0 -8 -7 -15 -15 -15 -8 0 -15 -7 -15
-15 0 -8 -7 -15 -15 -15 -8 0 -15 7 -15 15 0 8 -7 15 -15 15 -8 0 -15 -7 -15
-15 0 -8 7 -15 15 -15 8 0 15 -7 15 -15 0 -8 -7 -15 -15 -15 -8 0 -15 -7 -15
-15 0 -8 -7 -15 -15 -15 -8 0 -15 -7 -15 -15 0 -8 -7 -15 -15 -15 -8 0 -15 -7
-15 -15 0 -8 -7 -15 -15 -15 -8 0 -15 7 -15 15 0 8 -7 15 -15 15 -8 0 -15 -7
-15 -15 0 -8 -7 -15 -15 -15 -8 0 -15 -7 -15 -15 0 -8 -7 -15 -15 -15 -8 0
-15 -7 -15 -15 0 -8 -7 -15 -15 -15 -8 0 -15 -7 -15 -15 0 -8 7 -15 15 -15 8
0 15 7 15 15 0 8 7 15 15 15 8 0 15 7 15 15 0 8 7 15 15 15 8 0 15 -7 15 -15
0 -8 7 -15 15 -15 8 0 15 7 15 15 0 8 7 15 15 15 8 0 15 -7 15 -15 0 -8 7 -15
15 -15 8 0 15 7 15 15 0 8 7 15 15 15 8 0 15 -7 15 -15 0 -8 7 -15 15 -15 8 0
15 7 15 15 0 8 7 15 15 15 8 0 15 -7 15 -15 0 -8 7 -15 15 -15 8 0 15 7 15 15
0 8 7 15 15 15 8 0 15 -7 15 -15 0 -8 7 -15 15 -15 8 0 15 7 15 15 0 8 7 15
15 15 8 0 15 -7 15 -15 0 -8 7 -15 15 -15 8 0 15 -7 15 -15 0 -8 7 -15 15 -15
8 0 15 7 15 15 0 8 7 15 15 15 8 0 15 -7 15 -15 0 -8 7 -15 15 -15 8 0 15 -7
15 -15 0 -8 -7 -15 -15 -15 -8 0 -15 -7 -15 -15 0 -8 7 -15 15 -15 8 0 15 -7
15 -15 0 -8 7 -15 15 -15 8 0 15 7 15 15 0 8 7 15 15 15 8 0 15 7 15 15 0 8 7
15 15 15 8 0 15 -7 15 -15 0 -8 7 -15 15 -15 8 0 15 7 15 15 0 8 7 15 15 15 8
0 15 -7 15 -15 0 -8 7 -15 15 -15 8 0 15 7 15 15 0 8 7 15 15 15 8 0 15 7 15
15 0 8 7 15 15 15 8 0 15 7 15 15 0 8 -7 15 -15 15 -8 0 -15 7 -15 15 0 8 7
15 15 15 8 0 15 7 15 15 0 8 -7 15 -15 15 -8 0 -15 7 -15 15 0 8 7 15 15 15 8
0 15 7 15 15 0 8 7 15 15 15 8 0 15 7 15 15 0 8 -7 15 -15 15 -8 0 -15 -7 -15
-15 0 -8 -7 -15 -15 -15 -8 0 -15 7 -15 15 0 8 -7 15 -15 15 -8 0 -15 7 -15
15 0 8 -7 15 -15 15 -8 0 -15 7 -15 15 0 8 7 15 15 15 8 0 15 7 15 15 0 8 7
15 15 15 8 0 15 -7 15 -15 0 -8 7 -15 15 -15 8 0 15 7 15 15 0 8 -7 15 -15 15
-8 0 -15 7 -15 15 0 8 -7 15 -15 15 -8 0 -15 7 -15 15 0 8 -7 15 -15 15 -8 0
-15 7 -15 15 0 8 7 15 15 15 8 0 15 7 15 15 0 8 -7 15 -15 15 -8 0 -15 7 -15
15 0 8 7 15 15 15 8 0 15 7 15 15 0 8 7 15 15 15 8 0 15 7 15 15 0 8 -7 15
-15 15 -8 0 -15 7 -15 15 0 8 -7 15 -15 15 -8 0 -15 -7 -15 -15 0 -8 -7 -15
-15 -15 -8 0 -15 7 -15 15 0 8 -7 15 -15 15 -8 0 -15 -7 -15 -15z m30 -30 c0
-8 7 -15 15 -15 8 0 15 7 15 15 0 8 7 15 15 15 8 0 15 -7 15 -15 0 -8 -7 -15
-15 -15 -8 0 -15 -7 -15 -15 0 -8 -7 -15 -15 -15 -8 0 -15 -7 -15 -15 0 -8 7
-15 15 -15 8 0 15 -7 15 -15 0 -8 -7 -15 -15 -15 -8 0 -15 -7 -15 -15 0 -8 7
-15 15 -15 8 0 15 -7 15 -15 0 -8 7 -15 15 -15 8 0 15 -7 15 -15 0 -8 -7 -15
-15 -15 -8 0 -15 -7 -15 -15 0 -8 -7 -15 -15 -15 -8 0 -15 -7 -15 -15 0 -8 7
-15 15 -15 8 0 15 -7 15 -15 0 -8 7 -15 15 -15 8 0 15 -7 15 -15 0 -8 7 -15
15 -15 8 0 15 -7 15 -15 0 -8 -7 -15 -15 -15 -8 0 -15 -7 -15 -15 0 -8 7 -15
15 -15 8 0 15 -7 15 -15 0 -8 -7 -15 -15 -15 -8 0 -15 -7 -15 -15 0 -8 7 -15
15 -15 8 0 15 -7 15 -15 0 -8 -7 -15 -15 -15 -8 0 -15 -7 -15 -15 0 -8 -7 -15
-15 -15 -8 0 -15 7 -15 15 0 8 -7 15 -15 15 -8 0 -15 -7 -15 -15 0 -8 -7 -15
-15 -15 -8 0 -15 7 -15 15 0 8 -7 15 -15 15 -8 0 -15 -7 -15 -15 0 -8 -7 -15
-15 -15 -8 0 -15 -7 -15 -15 0 -8 -7 -15 -15 -15 -8 0 -15 7 -15 15 0 8 7 15
15 15 8 0 15 7 15 15 0 8 -7 15 -15 15 -8 0 -15 7 -15 15 0 8 -7 15 -15 15 -8
0 -15 7 -15 15 0 8 -7 15 -15 15 -8 0 -15 -7 -15 -15 0 -8 -7 -15 -15 -15 -8
0 -15 7 -15 15 0 8 -7 15 -15 15 -8 0 -15 7 -15 15 0 8 -7 15 -15 15 -8 0 -15
-7 -15 -15 0 -8 -7 -15 -15 -15 -8 0 -15 7 -15 15 0 8 -7 15 -15 15 -8 0 -15
-7 -15 -15 0 -8 -7 -15 -15 -15 -8 0 -15 7 -15 15 0 8 -7 15 -15 15 -8 0 -15
-7 -15 -15 0 -8 -7 -15 -15 -15 -8 0 -15 7 -15 15 0 8 -7 15 -15 15 -8 0 -15
-7 -15 -15 0 -8 -7 -15 -15 -15 -8 0 -15 7 -15 15 0 8 7 15 15 15 8 0 15 7 15
15 0 8 7 15 15 15 8 0 15 7 15 15 0 8 7 15 15 15 8 0 15 7 15 15 0 8 7 15 15
15 8 0 15 7 15 15 0 8 7 15 15 15 8 0 15 7 15 15 0 8 7 15 15 15 8 0 15 7 15
15 0 8 7 15 15 15 8 0 15 7 15 15 0 8 7 15 15 15 8 0 15 7 15 15 0 8 7 15 15
15 8 0 15 7 15 15 0 8 7 15 15 15 8 0 15 7 15 15 0 8 -7 15 -15 15 -8 0 -15 7
-15 15 0 8 7 15 15 15 8 0 15 7 15 15 0 8 7 15 15 15 8 0 15 -7 15 -15 0 -8 7
-15 15 -15 8 0 15 7 15 15 0 8 7 15 15 15 8 0 15 -7 15 -15 0 -8 7 -15 15 -15
8 0 15 7 15 15 0 8 7 15 15 15 8 0 15 7 15 15 0 8 7 15 15 15 8 0 15 -7 15
-15z"/>
<path d="M2040 4295 c0 -8 -7 -15 -15 -15 -8 0 -15 -7 -15 -15 0 -8 -7 -15
-15 -15 -8 0 -15 7 -15 15 0 8 -7 15 -15 15 -8 0 -15 -7 -15 -15 0 -8 -7 -15
-15 -15 -8 0 -15 7 -15 15 0 8 -7 15 -15 15 -8 0 -15 -7 -15 -15 0 -8 7 -15
15 -15 8 0 15 -7 15 -15 0 -8 -7 -15 -15 -15 -8 0 -15 -7 -15 -15 0 -8 -7 -15
-15 -15 -8 0 -15 -7 -15 -15 0 -8 -7 -15 -15 -15 -8 0 -15 -7 -15 -15 0 -8 -7
-15 -15 -15 -8 0 -15 -7 -15 -15 0 -8 -7 -15 -15 -15 -8 0 -15 -7 -15 -15 0
-8 -7 -15 -15 -15 -8 0 -15 -7 -15 -15 0 -8 -7 -15 -15 -15 -8 0 -15 -7 -15
-15 0 -8 -7 -15 -15 -15 -8 0 -15 -7 -15 -15 0 -8 -7 -15 -15 -15 -8 0 -15 -7
-15 -15 0 -8 7 -15 15 -15 8 0 15 7 15 15 0 8 7 15 15 15 8 0 15 -7 15 -15 0
-8 7 -15 15 -15 8 0 15 7 15 15 0 8 7 15 15 15 8 0 15 -7 15 -15 0 -8 7 -15
15 -15 8 0 15 7 15 15 0 8 7 15 15 15 8 0 15 -7 15 -15 0 -8 7 -15 15 -15 8 0
15 -7 15 -15 0 -8 7 -15 15 -15 8 0 15 7 15 15 0 8 7 15 15 15 8 0 15 -7 15
-15 0 -8 7 -15 15 -15 8 0 15 -7 15 -15 0 -8 7 -15 15 -15 8 0 15 -7 15 -15 0
-8 7 -15 15 -15 8 0 15 7 15 15 0 8 7 15 15 15 8 0 15 -7 15 -15 0 -8 7 -15
15 -15 8 0 15 7 15 15 0 8 7 15 15 15 8 0 15 -7 15 -15 0 -8 7 -15 15 -15 8 0
15 7 15 15 0 8 -7 15 -15 15 -8 0 -15 7 -15 15 0 8 7 15 15 15 8 0 15 7 15 15
0 8 -7 15 -15 15 -8 0 -15 7 -15 15 0 8 7 15 15 15 8 0 15 7 15 15 0 8 -7 15
-15 15 -8 0 -15 7 -15 15 0 8 -7 15 -15 15 -8 0 -15 7 -15 15 0 8 -7 15 -15
15 -8 0 -15 7 -15 15 0 8 7 15 15 15 8 0 15 7 15 15 0 8 7 15 15 15 8 0 15 7
15 15 0 8 -7 15 -15 15 -8 0 -15 7 -15 15 0 8 -7 15 -15 15 -8 0 -15 7 -15 15
0 8 7 15 15 15 8 0 15 7 15 15 0 8 -7 15 -15 15 -8 0 -15 7 -15 15 0 8 7 15
15 15 8 0 15 7 15 15 0 8 -7 15 -15 15 -8 0 -15 -7 -15 -15z m-60 -60 c0 -8 7
-15 15 -15 8 0 15 7 15 15 0 8 7 15 15 15 8 0 15 -7 15 -15 0 -8 -7 -15 -15
-15 -8 0 -15 -7 -15 -15 0 -8 7 -15 15 -15 8 0 15 -7 15 -15 0 -8 7 -15 15
-15 8 0 15 -7 15 -15 0 -8 -7 -15 -15 -15 -8 0 -15 -7 -15 -15 0 -8 -7 -15
-15 -15 -8 0 -15 -7 -15 -15 0 -8 7 -15 15 -15 8 0 15 -7 15 -15 0 -8 -7 -15
-15 -15 -8 0 -15 -7 -15 -15 0 -21 26 -19 35 3 6 16 7 16 19 0 7 -10 18 -18
25 -18 6 0 11 -7 11 -15 0 -8 -7 -15 -15 -15 -8 0 -15 -7 -15 -15 0 -8 7 -15
15 -15 8 0 15 -7 15 -15 0 -8 -7 -15 -15 -15 -8 0 -15 -7 -15 -15 0 -8 -7 -15
-15 -15 -8 0 -15 7 -15 15 0 8 -7 15 -15 15 -8 0 -15 -7 -15 -15 0 -8 -7 -15
-15 -15 -8 0 -15 7 -15 15 0 8 -7 15 -15 15 -8 0 -15 7 -15 15 0 8 -7 15 -15
15 -8 0 -15 7 -15 15 0 8 -7 15 -15 15 -8 0 -15 -7 -15 -15 0 -8 -7 -15 -15
-15 -8 0 -15 7 -15 15 0 8 -7 15 -15 15 -8 0 -15 7 -15 15 0 8 -7 15 -15 15
-8 0 -15 -7 -15 -15 0 -8 -7 -15 -15 -15 -8 0 -15 7 -15 15 0 8 -7 15 -15 15
-8 0 -15 -7 -15 -15 0 -8 -7 -15 -15 -15 -8 0 -15 7 -15 15 0 8 7 15 15 15 8
0 15 7 15 15 0 8 7 15 15 15 8 0 15 7 15 15 0 8 7 15 15 15 8 0 15 7 15 15 0
8 7 15 15 15 8 0 15 7 15 15 0 8 7 15 15 15 8 0 15 7 15 15 0 8 7 15 15 15 8
0 15 7 15 15 0 8 7 15 15 15 8 0 15 7 15 15 0 8 7 15 15 15 8 0 15 7 15 15 0
8 7 15 15 15 8 0 15 -7 15 -15z"/>
<path d="M1950 4205 c0 -8 -7 -15 -15 -15 -8 0 -15 -7 -15 -15 0 -8 -7 -15
-15 -15 -8 0 -15 -7 -15 -15 0 -8 -7 -15 -15 -15 -8 0 -15 -7 -15 -15 0 -8 -7
-15 -15 -15 -8 0 -15 -7 -15 -15 0 -8 -7 -15 -15 -15 -8 0 -15 -7 -15 -15 0
-8 -7 -15 -15 -15 -8 0 -15 -7 -15 -15 0 -8 7 -15 15 -15 8 0 15 7 15 15 0 8
7 15 15 15 8 0 15 -7 15 -15 0 -8 7 -15 15 -15 8 0 15 -7 15 -15 0 -8 7 -15
15 -15 8 0 15 7 15 15 0 8 7 15 15 15 8 0 15 -7 15 -15 0 -8 7 -15 15 -15 8 0
15 -7 15 -15 0 -8 7 -15 15 -15 8 0 15 -7 15 -15 0 -8 7 -15 15 -15 8 0 15 7
15 15 0 8 7 15 15 15 8 0 15 -7 15 -15 0 -8 7 -15 15 -15 8 0 15 7 15 15 0 8
-7 15 -15 15 -8 0 -15 7 -15 15 0 8 7 15 15 15 8 0 15 7 15 15 0 8 -7 15 -15
15 -8 0 -15 -7 -15 -15 0 -8 -7 -15 -15 -15 -8 0 -15 7 -15 15 0 8 -7 15 -15
15 -8 0 -15 7 -15 15 0 8 7 15 15 15 8 0 15 7 15 15 0 8 -7 15 -15 15 -8 0
-15 7 -15 15 0 8 7 15 15 15 8 0 15 7 15 15 0 8 7 15 15 15 8 0 15 7 15 15 0
8 -7 15 -15 15 -8 0 -15 7 -15 15 0 8 -7 15 -15 15 -8 0 -15 7 -15 15 0 8 -7
15 -15 15 -8 0 -15 -7 -15 -15z m30 -30 c0 -8 7 -15 15 -15 8 0 15 -7 15 -15
0 -8 -7 -15 -15 -15 -8 0 -15 -7 -15 -15 0 -8 -7 -15 -15 -15 -8 0 -15 -7 -15
-15 0 -8 7 -15 15 -15 8 0 15 -7 15 -15 0 -8 -7 -15 -15 -15 -8 0 -15 -7 -15
-15 0 -8 7 -15 15 -15 8 0 15 -7 15 -15 0 -8 7 -15 15 -15 8 0 15 -7 15 -15 0
-8 -7 -15 -15 -15 -8 0 -15 7 -15 15 0 8 -7 15 -15 15 -8 0 -15 7 -15 15 0 8
-7 15 -15 15 -8 0 -15 7 -15 15 0 8 -7 15 -15 15 -8 0 -15 -7 -15 -15 0 -8 -7
-15 -15 -15 -8 0 -15 7 -15 15 0 8 -7 15 -15 15 -8 0 -15 7 -15 15 0 8 7 15
15 15 8 0 15 7 15 15 0 8 7 15 15 15 8 0 15 7 15 15 0 8 7 15 15 15 8 0 15 7
15 15 0 8 7 15 15 15 8 0 15 7 15 15 0 8 7 15 15 15 8 0 15 -7 15 -15z"/>
<path d="M1770 3245 c0 -8 -7 -15 -15 -15 -8 0 -15 -7 -15 -15 0 -8 -7 -15
-15 -15 -8 0 -15 -7 -15 -15 0 -8 -7 -15 -15 -15 -8 0 -15 7 -15 15 0 8 -7 15
-15 15 -8 0 -15 -7 -15 -15 0 -8 -7 -15 -15 -15 -8 0 -15 -7 -15 -15 0 -8 7
-15 15 -15 8 0 15 7 15 15 0 8 7 15 15 15 8 0 15 -7 15 -15 0 -8 -7 -15 -15
-15 -8 0 -15 -7 -15 -15 0 -8 7 -15 15 -15 8 0 15 -7 15 -15 0 -8 -7 -15 -15
-15 -8 0 -15 5 -15 10 0 6 -9 19 -20 30 -11 11 -24 20 -30 20 -5 0 -10 7 -10
15 0 8 -7 15 -15 15 -8 0 -15 7 -15 15 0 8 -7 15 -15 15 -8 0 -15 -7 -15 -15
0 -8 -7 -15 -15 -15 -8 0 -15 7 -15 15 0 8 -7 15 -15 15 -8 0 -15 -7 -15 -15
0 -8 -7 -15 -15 -15 -8 0 -15 7 -15 15 0 8 -7 15 -15 15 -8 0 -15 -7 -15 -15
0 -8 -7 -15 -15 -15 -8 0 -15 -7 -15 -15 0 -8 7 -15 15 -15 8 0 15 -7 15 -15
0 -8 -7 -15 -15 -15 -8 0 -15 -7 -15 -15 0 -8 -7 -15 -15 -15 -8 0 -15 -7 -15
-15 0 -8 7 -15 15 -15 8 0 15 -7 15 -15 0 -8 7 -15 15 -15 8 0 15 -7 15 -15 0
-8 -7 -15 -15 -15 -8 0 -15 -7 -15 -15 0 -8 -7 -15 -15 -15 -8 0 -15 -7 -15
-15 0 -8 7 -15 15 -15 8 0 15 -7 15 -15 0 -8 7 -15 15 -15 8 0 15 7 15 15 0 8
7 15 15 15 8 0 15 -7 15 -15 0 -8 7 -15 15 -15 8 0 15 7 15 15 0 8 7 15 15 15
8 0 15 7 15 15 0 8 7 15 15 15 8 0 15 7 15 15 0 8 7 15 15 15 8 0 15 7 15 15
0 8 7 15 15 15 8 0 15 7 15 15 0 8 7 15 15 15 8 0 15 7 15 15 0 8 -7 15 -15
15 -8 0 -15 -7 -15 -15 0 -8 -7 -15 -15 -15 -8 0 -15 7 -15 15 0 8 7 15 15 15
8 0 15 7 15 15 0 8 -7 15 -15 15 -8 0 -15 7 -15 15 0 8 7 15 15 15 8 0 15 -6
15 -13 0 -14 35 -47 50 -47 6 0 10 -7 10 -15 0 -8 7 -15 15 -15 8 0 15 7 15
15 0 8 7 15 15 15 8 0 15 -7 15 -15 0 -8 7 -15 15 -15 8 0 15 7 15 15 0 8 -7
15 -15 15 -8 0 -15 7 -15 15 0 8 7 15 15 15 8 0 15 7 15 15 0 8 7 15 15 15 8
0 15 -7 15 -15 0 -8 7 -15 15 -15 8 0 15 7 15 15 0 8 -7 15 -15 15 -8 0 -15 7
-15 15 0 8 7 15 15 15 8 0 15 -4 15 -10 0 -13 37 -50 50 -50 6 0 10 7 10 15 0
8 -7 15 -15 15 -8 0 -15 7 -15 15 0 8 -7 15 -15 15 -8 0 -15 7 -15 15 0 8 -7
15 -15 15 -8 0 -15 7 -15 15 0 8 7 15 15 15 8 0 15 7 15 15 0 8 -7 15 -15 15
-8 0 -15 -7 -15 -15z m-330 -90 c0 -8 7 -15 15 -15 8 0 15 7 15 15 0 8 7 15
15 15 8 0 15 -7 15 -15 0 -8 7 -15 15 -15 8 0 15 7 15 15 0 8 7 15 15 15 8 0
15 -7 15 -15 0 -8 -7 -15 -15 -15 -8 0 -15 -7 -15 -15 0 -8 7 -15 15 -15 8 0
15 -7 15 -15 0 -8 -7 -15 -15 -15 -8 0 -15 -7 -15 -15 0 -8 7 -15 15 -15 8 0
15 -7 15 -15 0 -8 -7 -15 -15 -15 -8 0 -15 -7 -15 -15 0 -8 -7 -15 -15 -15 -8
0 -15 -7 -15 -15 0 -8 -7 -15 -15 -15 -8 0 -15 -7 -15 -15 0 -8 -7 -15 -15
-15 -8 0 -15 5 -15 11 0 7 -8 18 -17 25 -17 12 -17 13 0 19 21 9 23 35 2 35
-8 0 -15 7 -15 15 0 8 -7 15 -15 15 -8 0 -15 7 -15 15 0 8 7 15 15 15 8 0 15
7 15 15 0 8 7 15 15 15 8 0 15 7 15 15 0 8 -7 15 -15 15 -8 0 -15 7 -15 15 0
8 7 15 15 15 8 0 15 -7 15 -15z"/>
<path d="M1920 1415 c0 -8 7 -15 15 -15 8 0 15 -7 15 -15 0 -8 -7 -15 -15 -15
-8 0 -15 -5 -15 -10 0 -6 7 -13 15 -16 8 -4 15 -12 15 -20 0 -8 7 -14 15 -14
8 0 15 -7 15 -15 0 -8 7 -15 15 -15 8 0 15 -7 15 -15 0 -8 -7 -15 -15 -15 -8
0 -15 -5 -15 -10 0 -6 7 -13 15 -16 8 -4 15 -12 15 -20 0 -8 7 -14 15 -14 8 0
15 -7 15 -15 0 -8 -7 -15 -15 -15 -8 0 -15 -7 -15 -15 0 -8 7 -15 15 -15 8 0
15 -7 15 -15 0 -8 7 -15 15 -15 8 0 15 -7 15 -15 0 -8 -7 -15 -15 -15 -8 0
-15 -7 -15 -15 0 -8 7 -15 15 -15 8 0 15 -7 15 -15 0 -8 7 -15 15 -15 8 0 15
-7 15 -15 0 -8 -7 -15 -15 -15 -8 0 -15 -7 -15 -15 0 -8 7 -15 15 -15 8 0 15
7 15 15 0 8 7 15 15 15 8 0 15 7 15 15 0 8 7 15 15 15 8 0 15 7 15 15 0 8 7
15 15 15 8 0 15 7 15 15 0 8 7 15 15 15 8 0 15 -7 15 -15 0 -8 7 -15 15 -15 8
0 15 -7 15 -15 0 -8 7 -15 15 -15 8 0 15 7 15 15 0 8 -7 15 -15 15 -8 0 -15 7
-15 15 0 8 7 15 15 15 8 0 15 7 15 15 0 8 -7 15 -15 15 -8 0 -15 7 -15 15 0 8
-7 15 -15 15 -8 0 -15 7 -15 15 0 8 7 15 15 15 8 0 15 7 15 15 0 8 -7 15 -15
15 -8 0 -15 -7 -15 -15 0 -8 -7 -15 -15 -15 -8 0 -15 7 -15 15 0 8 -7 15 -15
15 -8 0 -15 7 -15 15 0 8 7 15 15 15 8 0 15 7 15 15 0 8 -7 15 -15 15 -8 0
-15 7 -15 15 0 8 -7 15 -15 15 -8 0 -15 -7 -15 -15 0 -8 -7 -15 -15 -15 -8 0
-15 7 -15 15 0 8 -7 15 -15 15 -8 0 -15 7 -15 15 0 8 -7 15 -15 15 -8 0 -15 7
-15 15 0 8 7 15 15 15 8 0 15 7 15 15 0 8 -7 15 -15 15 -8 0 -15 7 -15 15 0 8
-7 15 -15 15 -8 0 -15 -7 -15 -15 0 -8 -7 -15 -15 -15 -8 0 -15 7 -15 15 0 8
-7 15 -15 15 -8 0 -15 7 -15 15 0 8 -7 15 -15 15 -8 0 -15 -7 -15 -15z m60
-60 c0 -8 7 -15 15 -15 8 0 15 7 15 15 0 8 7 15 15 15 8 0 15 -7 15 -15 0 -8
-7 -15 -15 -15 -8 0 -15 -7 -15 -15 0 -8 7 -15 15 -15 8 0 15 -7 15 -15 0 -8
7 -15 15 -15 8 0 15 -7 15 -15 0 -8 7 -15 15 -15 8 0 15 -7 15 -15 0 -8 7 -15
15 -15 8 0 15 7 15 15 0 8 7 15 15 15 8 0 15 -7 15 -15 0 -8 -7 -15 -15 -15
-8 0 -15 -7 -15 -15 0 -8 7 -15 15 -15 8 0 15 -7 15 -15 0 -8 7 -15 15 -15 8
0 15 -7 15 -15 0 -8 7 -15 15 -15 8 0 15 -7 15 -15 0 -8 7 -15 15 -15 8 0 15
-7 15 -15 0 -8 -7 -15 -15 -15 -8 0 -15 7 -15 15 0 8 -7 15 -15 15 -8 0 -15
-7 -15 -15 0 -8 -7 -15 -15 -15 -8 0 -15 -7 -15 -15 0 -8 -7 -15 -15 -15 -8 0
-15 -7 -15 -15 0 -8 -7 -15 -15 -15 -8 0 -15 7 -15 15 0 8 -7 15 -15 15 -8 0
-15 7 -15 15 0 8 7 15 15 15 8 0 15 7 15 15 0 8 -7 15 -15 15 -8 0 -15 7 -15
15 0 8 -7 15 -15 15 -8 0 -15 7 -15 15 0 8 7 15 15 15 8 0 15 7 15 15 0 8 -7
15 -15 15 -8 0 -15 7 -15 15 0 8 -7 15 -15 15 -8 0 -15 7 -15 15 0 8 7 15 15
15 8 0 15 7 15 15 0 8 -7 15 -15 15 -8 0 -15 7 -15 15 0 8 -7 15 -15 15 -8 0
-15 7 -15 15 0 8 -7 15 -15 15 -8 0 -15 7 -15 15 0 8 7 15 15 15 8 0 15 -7 15
-15z"/>
</g>
</svg>
