<?xml version="1.0" standalone="no"?>
<!DOCTYPE svg PUBLIC "-//W3C//DTD SVG 20010904//EN"
 "http://www.w3.org/TR/2001/REC-SVG-20010904/DTD/svg10.dtd">
<svg version="1.0" xmlns="http://www.w3.org/2000/svg"
 width="640px" height="540px" viewBox="0 0 341.000000 384.000000"
 preserveAspectRatio="xMidYMid meet">

<defs>
			<style type="text/css"><![CDATA[
				text.label {
					fill:   #FFFFFF;
					font-size: 15pt;
					font-weight: bold;
					font-family: "Courier New";
					-ms-transform: translate(10px,20px); /* IE 9 */
					-webkit-transform: translate(10px,20px); /* Safari and Chrome */
					-o-transform: translate(10px,20px); /* Opera */
					-moz-transform: translate(10px,20px); /* Firefox */
				}
				rect.label_background {
					fill:   #000000;
					fill-opacity: 0.5;
					-ms-transform: translate(6px,6px); /* IE 9 */
					-webkit-transform: translate(6px,6px); /* Safari and Chrome */
					-o-transform: translate(6px,6px); /* Opera */
					-moz-transform: translate(6px,6px); /* Firefox */
				}
			]]></style>
		</defs>

<g id="BG" style="fill:rgb(255,255,255)">
<rect width="341.000000pt" height="384.000000pt" />
</g>
<g transform="translate(0.000000,384.000000) scale(0.100000,-0.100000)"
fill="#000000" stroke="none" id="FG">
<path d="M1824 3690 c-75 -11 -118 -27 -228 -83 -117 -60 -225 -143 -291 -224
l-48 -58 350 -3 350 -2 66 -143 67 -142 -16 -160 c-8 -88 -17 -170 -20 -182
-4 -22 -8 -23 -124 -23 l-119 0 5 33 c7 56 24 225 24 247 0 20 -5 20 -270 20
l-269 0 -6 -32 c-3 -18 -14 -130 -25 -248 -11 -118 -29 -307 -40 -420 -11
-113 -20 -207 -20 -210 0 -3 40 -4 90 -2 79 3 90 6 90 22 0 26 19 219 25 258
6 31 5 32 -30 32 -41 0 -40 -10 -24 173 l12 127 160 0 160 0 -7 -87 c-4 -49
-13 -151 -21 -228 -8 -77 -17 -176 -21 -220 l-6 -80 56 0 c65 0 59 -16 77 188
l13 137 118 0 118 0 0 -42 c-1 -24 -9 -117 -18 -208 l-18 -165 -94 -137 -95
-137 -96 -1 -96 0 -7 -57 c-3 -32 -9 -88 -12 -125 l-7 -68 231 0 230 0 6 28
c3 15 10 79 16 142 5 63 17 185 25 270 37 383 75 783 75 791 0 5 72 9 160 9
146 0 160 -2 160 -17 0 -26 -21 -234 -26 -260 -4 -19 -11 -23 -39 -23 -19 0
-35 -3 -35 -7 0 -5 -5 -48 -10 -98 -5 -49 -21 -209 -35 -355 -13 -146 -32
-335 -40 -419 l-15 -155 -91 -138 -92 -138 -138 0 -137 0 -27 -31 c-39 -47
-73 -120 -90 -191 -16 -72 -35 -284 -35 -400 l0 -78 28 6 c15 3 52 12 83 20
31 8 73 14 93 14 75 0 139 41 184 120 38 67 117 162 157 189 52 35 143 157
205 273 30 56 62 104 71 106 11 2 22 -14 37 -55 12 -32 35 -80 52 -107 l31
-48 22 19 c12 10 45 40 74 66 33 29 61 47 77 47 29 0 62 38 164 191 231 347
324 532 353 705 18 109 13 372 -10 480 -41 195 -130 376 -236 479 -100 97
-186 142 -307 158 -52 8 -100 17 -106 21 -7 4 -41 67 -77 139 -99 204 -223
352 -352 419 -124 65 -275 96 -389 78z m1126 -1223 c0 -2 -15 -48 -33 -103
-37 -109 -69 -239 -87 -354 -16 -94 -41 -147 -77 -156 -14 -4 -33 -3 -42 3
-79 48 -61 246 36 406 48 79 203 235 203 204z"/>
<path d="M975 2856 c-151 -55 -286 -155 -360 -265 l-47 -71 -104 0 c-99 0
-104 -1 -104 -21 0 -21 45 -70 119 -132 26 -21 32 -32 27 -50 -26 -88 -37
-205 -34 -376 l3 -184 -25 -15 c-49 -31 -99 -92 -131 -158 -27 -58 -33 -83
-40 -188 -11 -151 -10 -145 -74 -296 -30 -69 -57 -143 -60 -165 -4 -22 -18
-79 -31 -127 -23 -80 -24 -94 -15 -164 6 -42 25 -118 42 -168 33 -100 117
-306 130 -320 14 -16 58 34 90 101 17 35 48 84 70 109 74 86 94 165 109 434
14 255 24 318 59 360 23 28 31 32 59 26 17 -4 71 -34 119 -66 103 -68 149 -83
259 -82 107 1 211 24 282 62 107 58 103 46 48 158 l-47 97 15 154 c9 85 16
160 16 167 0 11 -26 14 -123 14 l-123 0 -77 143 -77 142 30 300 c47 478 58
600 57 601 -1 1 -29 -8 -62 -20z"/>
</g>
<g transform="translate(0.000000,384.000000) scale(0.100000,-0.100000)"
fill="#000000" stroke="none" id="MG">
<path d="M1820 3828 c-217 -59 -361 -134 -493 -258 -52 -49 -167 -189 -167
-204 0 -4 -11 -23 -24 -44 -13 -20 -52 -102 -86 -182 -35 -80 -69 -152 -77
-162 -8 -9 -30 -19 -48 -22 -43 -8 -115 -40 -163 -72 -20 -13 -46 -30 -57 -37
-36 -22 -137 -131 -161 -173 -9 -16 -24 -19 -95 -22 -113 -3 -125 -6 -154 -49
-20 -30 -25 -50 -25 -96 0 -75 18 -115 80 -181 l50 -53 -10 -69 c-5 -38 -10
-134 -10 -214 l0 -145 -38 -40 c-21 -22 -52 -65 -69 -95 -58 -102 -73 -154
-84 -294 -9 -117 -13 -139 -45 -211 -48 -106 -77 -191 -103 -300 -12 -49 -27
-110 -33 -135 -13 -54 3 -200 34 -300 26 -83 133 -354 160 -401 56 -100 140
-64 225 96 20 38 45 78 55 89 96 103 131 233 148 546 14 261 13 253 48 237 15
-6 36 -20 47 -30 47 -43 141 -86 212 -97 92 -15 271 2 346 31 49 19 146 74
157 88 3 4 18 17 34 29 25 19 41 22 117 22 48 0 90 -4 93 -9 3 -5 -8 -38 -24
-73 -52 -111 -80 -304 -80 -552 0 -120 2 -132 25 -173 30 -50 36 -51 138 -23
40 11 106 24 146 29 117 15 155 40 232 157 37 54 81 113 100 129 79 71 152
153 199 222 28 40 50 78 50 83 0 28 22 13 51 -35 50 -83 104 -95 166 -37 81
74 103 89 131 95 44 9 65 33 204 243 278 420 343 562 374 823 14 122 15 164 5
286 -17 213 -53 339 -159 555 -37 75 -63 111 -122 171 -123 124 -232 183 -362
196 -38 3 -72 11 -77 17 -5 6 -23 44 -41 85 -29 68 -85 169 -100 181 -3 3 -19
23 -36 45 -50 67 -57 76 -126 145 -95 95 -195 142 -401 189 -55 13 -108 13
-157 -1z m187 -130 c20 -5 45 -12 57 -14 37 -9 51 -12 54 -14 1 -2 5 -3 10 -5
19 -5 128 -60 139 -69 6 -6 33 -29 59 -51 52 -44 154 -166 154 -184 0 -6 5
-11 10 -11 6 0 10 -7 10 -15 0 -8 4 -15 10 -15 5 0 12 -11 16 -25 3 -14 10
-25 15 -25 5 0 9 -7 9 -16 0 -9 9 -32 21 -50 11 -19 18 -34 15 -34 -9 0 32
-74 54 -98 16 -16 33 -22 68 -23 57 -1 88 -6 127 -21 70 -26 113 -48 125 -63
7 -8 16 -15 21 -15 22 0 134 -111 166 -165 29 -48 103 -208 108 -233 2 -9 4
-18 4 -19 1 -2 1 -6 2 -10 0 -5 5 -14 11 -20 6 -7 8 -13 4 -13 -3 0 -1 -12 5
-27 6 -16 13 -41 16 -58 2 -16 8 -43 12 -60 14 -53 11 -375 -4 -440 -8 -33
-12 -61 -10 -64 3 -2 0 -10 -6 -18 -6 -7 -8 -13 -4 -13 4 0 2 -7 -5 -15 -7 -8
-9 -15 -5 -15 4 0 2 -7 -5 -15 -7 -8 -9 -15 -6 -15 4 0 1 -10 -6 -22 -7 -13
-11 -26 -10 -30 1 -5 -3 -8 -10 -8 -6 0 -9 -3 -5 -6 7 -7 -39 -101 -76 -155
-14 -21 -28 -46 -32 -58 -3 -12 -10 -21 -15 -21 -4 0 -11 -11 -14 -25 -4 -14
-11 -25 -16 -25 -6 0 -10 -5 -10 -10 0 -12 -52 -94 -62 -98 -5 -2 -8 -10 -8
-18 0 -8 -4 -14 -10 -14 -5 0 -10 -7 -10 -15 0 -8 -4 -15 -10 -15 -5 0 -10 -7
-10 -15 0 -8 -4 -15 -10 -15 -5 0 -10 -7 -10 -15 0 -8 -4 -15 -10 -15 -5 0
-10 -5 -10 -11 0 -11 -50 -82 -62 -87 -5 -2 -8 -9 -8 -15 -1 -16 -42 -45 -72
-51 -13 -2 -40 -19 -59 -37 -62 -58 -90 -79 -109 -79 -24 0 -93 136 -99 193
-3 23 -31 0 -54 -45 -75 -144 -117 -206 -184 -277 -32 -33 -62 -61 -67 -61
-11 0 -31 -22 -91 -101 -30 -40 -55 -78 -55 -86 0 -7 -3 -13 -7 -13 -5 0 -15
-13 -24 -29 -24 -42 -93 -71 -167 -71 -34 0 -62 -4 -62 -8 0 -5 -6 -9 -12 -10
-7 0 -24 -3 -38 -6 -14 -4 -40 -9 -58 -12 l-34 -6 8 149 c4 81 8 162 9 178 1
17 5 48 8 70 4 22 9 54 11 70 3 17 9 42 15 58 6 15 8 27 5 27 -4 0 -1 6 5 14
7 8 14 23 16 35 6 32 67 112 93 122 13 5 79 9 147 9 l123 0 33 51 c18 28 37
56 43 62 6 7 17 24 25 39 8 15 22 37 33 47 10 11 18 24 18 30 0 5 5 11 11 13
7 2 13 17 14 33 9 107 16 172 20 185 2 8 7 58 11 110 10 130 10 137 18 205 4
33 8 85 11 116 2 30 6 71 9 90 3 19 8 68 11 109 4 41 8 101 11 134 5 72 8 76
44 76 36 0 40 7 45 72 3 29 7 88 11 131 l6 78 -153 -3 c-146 -3 -154 -4 -155
-23 -7 -92 -14 -173 -18 -199 -6 -32 -18 -169 -21 -221 -1 -16 -4 -52 -8 -80
-6 -43 -11 -94 -22 -235 -1 -14 -5 -50 -9 -80 -4 -30 -9 -80 -11 -110 -7 -93
-16 -182 -23 -240 l-7 -55 -235 0 -235 0 1 30 c4 110 16 220 24 236 9 17 22
19 103 19 l92 0 25 37 c14 20 30 41 35 47 6 6 16 23 24 38 8 15 21 36 30 45
61 68 75 108 86 238 3 39 9 97 11 130 3 33 6 74 7 90 l2 30 -107 3 c-94 2
-108 1 -116 -15 -8 -16 -14 -74 -27 -257 -2 -21 -7 -42 -13 -48 -5 -5 -33 -8
-63 -6 l-54 3 1 45 c2 63 13 198 19 224 2 11 7 57 10 101 11 132 14 168 21
208 l6 37 -156 0 c-117 0 -156 -3 -157 -12 -1 -7 -3 -29 -5 -48 -2 -19 -7 -71
-12 -115 -5 -44 -7 -83 -5 -87 2 -5 15 -8 29 -8 16 0 27 -8 33 -22 5 -13 7
-25 5 -28 -3 -7 -12 -83 -19 -165 -2 -33 -7 -77 -11 -98 l-6 -38 -91 3 -91 3
1 30 c0 17 3 57 7 90 8 72 15 152 21 220 2 28 7 77 10 110 4 33 8 78 10 100 1
22 6 67 9 100 11 108 17 169 22 220 2 27 8 53 12 57 5 5 130 7 278 6 l269 -3
-1 -45 c-1 -25 -6 -83 -12 -129 -6 -46 -8 -90 -5 -98 4 -10 32 -13 114 -13
l109 0 1 28 c0 15 2 38 4 52 6 41 15 140 20 213 4 63 2 72 -36 141 -22 41 -42
84 -44 96 -2 11 -14 37 -25 56 l-22 34 -342 0 c-189 0 -345 3 -349 6 -3 4 2
18 11 33 25 39 154 171 168 171 6 0 14 7 18 15 3 8 12 15 21 15 8 0 15 4 15 9
0 5 16 15 35 22 19 7 35 17 35 22 0 4 4 6 9 3 5 -4 11 -3 13 1 7 17 135 71
233 98 25 7 161 2 192 -7z m-965 -830 c3 -7 1 -31 -3 -53 -6 -36 -19 -173 -24
-250 -1 -16 -4 -52 -8 -80 -6 -45 -10 -86 -22 -235 -2 -25 -7 -61 -9 -80 -15
-96 -15 -189 -1 -223 8 -20 19 -39 25 -42 6 -4 8 -11 5 -16 -4 -5 -2 -9 3 -9
5 0 20 -25 33 -55 13 -30 27 -55 30 -55 4 0 12 -13 19 -30 l12 -29 127 -3 126
-3 -1 -45 c-1 -25 -4 -70 -7 -100 -4 -30 -9 -89 -13 -130 l-7 -76 49 -97 48
-97 -22 -20 c-11 -11 -25 -20 -31 -20 -5 0 -11 -3 -13 -7 -8 -18 -131 -67
-198 -78 -42 -7 -208 -8 -235 -1 -52 13 -97 34 -122 57 -36 32 -112 76 -139
80 -28 5 -71 -19 -77 -42 -3 -11 -6 -23 -7 -27 -1 -4 -6 -15 -11 -25 -6 -9
-12 -63 -14 -120 -8 -183 -15 -291 -21 -332 -11 -78 -13 -90 -18 -110 -2 -11
-5 -21 -6 -22 -2 -2 -4 -7 -5 -13 -1 -5 -4 -12 -5 -15 -1 -3 -3 -8 -5 -12 -8
-32 -28 -65 -57 -95 -18 -20 -46 -62 -62 -94 -36 -74 -73 -124 -90 -124 -17 0
-36 22 -41 48 -2 11 -11 32 -20 46 -10 14 -14 26 -10 26 4 0 0 11 -9 25 -9 14
-14 25 -11 25 3 0 0 10 -7 23 -7 12 -13 24 -13 27 0 3 -6 15 -13 27 -7 13 -10
23 -6 23 3 0 1 7 -6 15 -7 8 -9 15 -6 15 4 0 4 6 -1 13 -4 6 -9 21 -10 31 -2
11 -8 25 -14 33 -6 7 -9 13 -6 13 3 0 1 15 -5 33 -13 43 -22 193 -12 214 4 10
8 21 9 26 2 4 4 9 5 12 1 3 3 8 5 13 9 36 15 61 19 82 10 61 31 129 53 172 13
27 22 49 21 50 -2 2 8 20 20 41 13 20 21 37 17 37 -3 0 -3 6 2 13 11 17 14 34
18 102 13 188 15 198 61 292 27 53 88 123 110 123 23 0 27 35 30 235 3 205 6
254 16 271 4 5 9 28 12 50 7 43 1 50 -85 114 -31 23 -63 85 -55 106 4 11 28
14 107 14 92 0 102 2 120 23 10 12 18 28 19 34 0 18 140 163 157 163 7 0 16 7
19 15 4 8 12 15 19 15 8 0 20 6 28 14 21 22 166 83 199 85 9 1 18 -5 20 -11z"/>
</g>

<rect class="label_background" width="384.0pt" height="15.0pt" />
<text class="label" id="labelText">Loading data...</text>

</svg>
