<!-- ........................ WOZ 1 ........................ -->
		<svg version="1.0" xmlns="http://www.w3.org/2000/svg"
		 width="262.000000pt" height="333.000000pt" viewBox="0 0 600.000000 686.000000"
		 preserveAspectRatio="none" >

		<defs>
			<style type="text/css"><![CDATA[
				text.label {
					fill:   #FFFFFF;
					font-size: 25px;
					font-weight: bold;
					font-family: "Courier New";
					-ms-transform: translate(05px,15px); /* IE 9 */
					-webkit-transform: translate(05px,15px); /* Safari and Chrome */
					-o-transform: translate(05px,15px); /* Opera */
					-moz-transform: translate(05px,15px); /* Firefox */
				}
				rect.label_background {
					fill:   #000000;
					fill-opacity: 0.5;
					-ms-transform: translate(6px,6px); /* IE 9 */
					-webkit-transform: translate(6px,6px); /* Safari and Chrome */
					-o-transform: translate(6px,6px); /* Opera */
					-moz-transform: translate(6px,6px); /* Firefox */
				}
			]]></style>
		</defs>

						<g id="FG" style="fill:rgb(255,255,255)">
			<rect width="600pt" height="686.000000pt" />
		</g>
		
			<!-- BEGIN MIDDLE GROUND -->
			<g transform="translate(0.000000,761.000000) scale(0.230000,-0.230000)"
				fill="#000000" stroke="none" id="MG">
				<path d="M9 2448 c0 -486 -1 -1102 -2 -1369 l-2 -485 48 52 c32 36 63 58 95
				69 72 26 331 153 387 190 70 45 149 84 224 110 36 12 68 28 73 36 4 8 20 50
				35 94 19 53 29 72 31 58 2 -13 10 -23 17 -23 15 0 37 -64 39 -112 0 -14 4 -24
				7 -22 10 6 19 -52 19 -117 0 -33 -4 -59 -10 -59 -5 0 -10 -5 -10 -11 0 -5 4
				-7 10 -4 5 3 10 1 10 -4 0 -6 -4 -11 -9 -11 -12 0 -22 -45 -15 -64 5 -14 9
				-13 34 4 15 11 32 20 38 20 15 0 75 -78 124 -164 29 -49 48 -74 53 -66 4 7 -6
				31 -26 59 -18 25 -32 54 -31 64 0 9 -3 15 -7 12 -5 -2 -14 1 -20 9 -9 10 -8
				15 2 19 16 6 45 -14 40 -29 -5 -15 36 -66 48 -58 5 3 7 10 4 15 -4 5 2 6 11 2
				13 -5 16 -3 11 10 -3 9 -1 19 5 23 7 4 8 3 4 -4 -4 -7 -2 -12 4 -12 6 0 8 -4
				5 -10 -3 -6 1 -7 9 -4 19 7 21 20 4 27 -10 4 -10 6 0 6 6 1 14 0 17 -1 2 -2
				16 13 30 32 24 32 24 36 8 47 -9 7 -21 13 -26 13 -4 0 -5 4 -2 10 3 6 -1 7
				-10 4 -14 -6 -14 -8 2 -20 10 -7 25 -14 33 -14 9 -1 5 -5 -8 -11 -13 -5 -20
				-13 -17 -19 3 -5 -1 -10 -10 -10 -12 0 -15 5 -11 17 4 10 4 14 0 10 -4 -4 -13
				-2 -21 4 -7 6 -13 8 -13 5 0 -4 -9 -2 -20 4 -15 8 -20 8 -20 -2 0 -9 -3 -9
				-12 0 -7 7 -17 12 -22 12 -6 0 -5 -5 2 -12 7 -7 12 -16 12 -22 0 -6 -5 -5 -11
				1 -6 6 -18 9 -26 6 -13 -5 -13 -2 -4 15 8 15 8 23 -1 28 -6 4 -9 3 -5 -2 3 -5
				0 -20 -7 -32 -12 -22 -13 -22 -27 -6 -12 16 -12 17 1 10 8 -4 5 1 -7 10 -13 9
				-23 23 -23 30 0 14 -27 98 -84 256 -24 68 -30 95 -20 91 8 -3 14 -11 14 -18 0
				-19 27 -39 32 -24 3 8 8 8 18 -2 8 -8 22 -14 30 -14 8 1 24 -9 36 -21 13 -14
				30 -20 48 -18 22 2 26 -1 22 -13 -6 -14 -4 -14 11 -2 11 9 14 10 9 2 -4 -8 -2
				-13 4 -13 6 0 8 -5 5 -10 -4 -6 -11 -7 -17 -4 -6 4 -9 1 -6 -7 3 -8 18 -16 34
				-19 32 -6 76 -39 68 -52 -5 -8 32 -12 70 -8 13 1 17 -3 13 -14 -4 -9 -2 -16 2
				-16 5 0 12 22 16 49 4 27 15 57 24 65 16 15 19 14 29 -10 7 -14 8 -23 2 -19
				-6 3 -7 -1 -4 -9 3 -9 11 -16 16 -16 6 0 8 -11 6 -25 -4 -20 -1 -25 16 -26 18
				-1 18 -2 -4 -8 l-25 -7 25 -8 c14 -5 29 -7 34 -7 5 1 5 -6 1 -16 -4 -10 -8
				-22 -9 -28 -15 -64 -34 -102 -76 -156 -202 -256 -235 -293 -252 -283 -6 4 -8
				2 -4 -4 3 -6 2 -13 -4 -17 -5 -3 -10 -14 -10 -23 0 -14 2 -14 9 -3 7 11 10 10
				14 -5 3 -11 5 -5 6 15 1 30 3 32 18 20 9 -8 14 -9 10 -2 -4 6 5 21 22 35 16
				13 51 50 77 83 26 33 61 71 78 85 16 14 51 47 78 74 47 49 63 52 32 8 -9 -13
				-14 -25 -12 -28 3 -2 16 14 30 35 24 36 26 50 27 148 1 60 -3 142 -9 182 -6
				41 -9 76 -6 78 2 2 13 5 25 6 11 1 24 9 27 19 3 10 12 18 20 18 8 0 13 4 10 9
				-3 4 3 16 14 26 11 10 17 21 15 25 -3 4 4 10 14 13 11 2 24 15 31 27 11 21 10
				22 -6 16 -11 -4 -6 4 11 18 16 13 33 22 37 19 5 -2 8 0 8 6 0 5 46 45 103 89
				102 79 153 102 176 79 10 -9 11 -8 5 8 -7 18 -6 18 9 7 9 -8 23 -38 32 -68 12
				-41 29 -68 68 -107 28 -29 52 -58 52 -65 0 -8 27 -22 60 -33 33 -11 69 -24 80
				-29 11 -5 61 -27 110 -49 50 -21 116 -52 148 -69 l57 -30 0 1159 0 1159 -1305
				0 -1305 0 -1 -882z m1171 257 c0 4 6 2 13 -4 8 -6 17 -8 20 -4 4 3 7 1 7 -5 0
				-7 9 -12 19 -12 11 0 23 -9 26 -20 4 -11 11 -18 16 -15 8 6 13 -9 7 -19 -2 -2
				5 -12 14 -23 10 -10 17 -30 16 -44 0 -13 0 -33 1 -44 1 -17 3 -18 11 -5 8 13
				10 12 10 -2 0 -10 -5 -18 -11 -18 -6 0 -10 -21 -9 -52 1 -29 1 -58 1 -64 -1
				-7 -21 -18 -45 -25 -27 -8 -42 -17 -39 -25 2 -7 -5 -15 -16 -19 -12 -3 -21
				-11 -21 -17 0 -5 -6 -8 -14 -5 -7 3 -19 0 -25 -6 -6 -6 -11 -7 -11 -3 0 5 -6
				3 -14 -4 -8 -6 -12 -18 -9 -26 3 -8 1 -14 -4 -14 -10 0 -12 -52 -2 -60 10 -8
				40 -171 33 -181 -3 -6 0 -16 6 -24 6 -8 9 -19 6 -24 -8 -13 30 -34 63 -35 13
				-1 26 -7 29 -15 4 -11 -1 -12 -19 -6 -65 20 -87 18 -116 -12 -15 -17 -36 -33
				-46 -36 -11 -4 -15 -12 -11 -19 5 -8 1 -8 -12 2 -30 22 -30 24 -9 16 15 -5 17
				-4 9 4 -9 9 -23 7 -55 -7 l-44 -20 33 -17 c32 -17 33 -18 17 -36 -9 -10 -23
				-16 -30 -14 -7 3 -16 1 -20 -5 -4 -7 -12 -8 -24 -2 -12 7 -26 4 -46 -9 -16
				-10 -33 -17 -37 -14 -5 3 -7 0 -6 -8 2 -7 -3 -12 -10 -10 -17 3 -41 -55 -37
				-91 2 -15 -1 -25 -5 -22 -5 3 -6 13 -3 23 5 14 2 13 -11 -3 -17 -19 -17 -19
				-11 10 l6 30 -20 -30 c-15 -21 -21 -25 -25 -15 -37 98 -76 244 -76 282 0 25 9
				102 21 170 12 72 20 156 18 203 -4 134 -2 145 24 145 40 0 186 122 187 156 0
				6 12 22 28 36 15 14 41 41 57 60 35 40 87 62 104 45 9 -9 14 -9 19 -1 10 16
				45 22 60 11 6 -5 12 -6 12 -2z m450 -605 c21 -11 42 -25 46 -32 11 -17 12 -68
				2 -68 -4 0 -8 -11 -8 -24 0 -24 -13 -31 -85 -43 -11 -2 -29 -5 -40 -7 -11 -2
				-23 -4 -27 -5 -5 0 -8 -9 -8 -19 0 -28 -55 -64 -85 -56 -14 3 -25 11 -25 18 0
				6 -16 20 -36 31 -43 23 -62 57 -62 109 0 30 -6 44 -23 58 -35 27 -15 33 103
				32 71 -1 109 3 123 13 28 19 80 16 125 -7z m-428 -514 c15 -23 8 -44 -19 -51
				-20 -5 -24 -8 -13 -15 8 -5 27 -3 47 5 19 8 31 10 28 6 -2 -5 3 -12 12 -15 13
				-5 9 -12 -21 -32 -21 -14 -40 -23 -43 -20 -4 3 -11 2 -17 -3 -16 -12 -57 -21
				-50 -10 8 14 -6 10 -22 -6 -12 -12 -12 -15 -2 -15 10 0 10 -2 -1 -9 -8 -5 -27
				-5 -45 0 -41 12 -43 12 -20 -7 10 -8 13 -13 7 -9 -7 3 -13 1 -13 -6 0 -8 -4
				-8 -15 1 -9 8 -15 8 -15 2 0 -6 -9 -10 -19 -9 -11 0 -19 6 -18 12 1 5 -6 9
				-15 9 -14 -1 -16 2 -7 17 6 13 6 19 -1 19 -5 0 -9 6 -7 13 1 6 -4 11 -10 10
				-7 -2 -13 0 -14 5 0 4 -2 20 -4 36 -2 16 1 38 7 49 9 18 11 19 20 3 5 -9 14
				-14 19 -11 5 4 27 -8 50 -26 22 -17 42 -29 44 -27 7 6 -25 49 -33 44 -4 -2
				-16 8 -26 21 l-19 26 27 -5 c14 -3 28 -2 30 1 8 12 171 10 178 -3z"/>
				<path d="M778 2284 c-10 -3 -18 -10 -18 -15 0 -5 -3 -8 -7 -7 -5 1 -17 -1 -29
				-5 -25 -9 -32 -67 -8 -67 8 0 14 5 14 12 0 6 3 9 6 5 4 -3 13 0 20 8 18 17 75
				13 127 -10 30 -13 19 -22 -53 -44 -68 -22 -114 -51 -92 -59 6 -2 8 -11 5 -20
				-4 -12 0 -10 10 4 15 19 26 21 111 21 56 0 93 -4 89 -9 -3 -6 -14 -8 -24 -5
				-11 3 -17 1 -14 -3 5 -8 -11 -13 -90 -24 -16 -3 5 -3 47 -2 68 3 80 6 97 27
				11 13 18 30 16 38 -3 8 0 11 9 8 8 -3 19 0 25 7 14 17 -5 76 -25 76 -8 0 -14
				7 -14 15 0 8 -14 22 -30 30 -31 16 -141 28 -172 19z"/>
			</g> <!-- END MIDDLEGROUND -->



			<!-- BEGIN BACKGROUND -->
			<g transform="translate(0.000000,686.000000) scale(0.100000,-0.100000)"
				fill="#888888" stroke="none" id="BG">
				<path d="M0 3675 c0 -1953 4 -3185 9 -3185 12 0 41 28 41 39 0 15 172 182 196
				192 13 4 24 15 24 22 0 22 135 77 187 77 12 0 23 4 25 8 4 10 113 68 147 77
				14 4 33 15 44 25 10 10 40 21 65 25 51 8 122 40 122 55 0 6 6 10 14 10 29 0
				134 52 139 69 4 16 121 81 146 81 6 0 11 5 11 10 0 6 8 10 17 10 20 0 123 60
				123 72 0 4 6 8 14 8 13 0 116 65 126 80 3 4 34 20 70 35 36 15 69 31 74 36 6
				5 16 9 24 9 8 0 22 8 31 18 27 29 68 42 137 42 90 0 143 33 144 90 0 14 12 57
				26 95 14 39 29 87 34 108 4 21 13 44 19 50 6 6 11 23 11 37 0 14 5 31 11 37
				14 14 7 145 -8 150 -6 2 -20 12 -31 21 -11 9 -30 24 -41 32 -12 8 -21 20 -21
				26 0 6 -13 22 -30 35 -16 13 -30 29 -30 35 0 6 -13 25 -30 42 -16 18 -30 37
				-30 43 0 6 -18 28 -41 49 -34 32 -42 46 -48 91 -4 30 -16 72 -28 94 -11 22
				-28 60 -38 85 -9 25 -23 60 -31 78 -8 18 -14 41 -14 50 0 10 -11 45 -23 78
				-13 33 -26 89 -29 125 -3 36 -13 79 -22 96 -9 19 -16 56 -16 89 0 32 -5 74
				-11 93 -15 49 -52 121 -61 121 -12 0 -68 62 -68 75 0 7 -6 15 -14 18 -7 3 -24
				27 -37 54 -12 26 -29 54 -36 61 -7 7 -15 25 -19 40 -3 15 -14 54 -25 87 -12
				33 -24 92 -28 130 -4 39 -13 80 -19 92 -7 13 -12 69 -12 140 0 70 -7 147 -16
				188 -29 132 -29 149 0 172 29 23 46 62 46 101 -1 49 18 204 29 231 5 14 13 56
				16 94 4 37 10 67 15 67 21 0 50 118 60 245 4 55 12 120 18 145 6 25 15 74 21
				110 10 64 40 193 60 258 5 17 19 44 30 58 12 15 21 37 21 51 0 21 24 70 41 83
				3 3 14 19 23 37 12 25 16 62 16 167 0 149 13 197 73 260 15 16 27 32 27 36 0
				4 24 20 53 35 28 16 69 45 90 66 26 25 49 38 75 42 56 7 156 31 162 38 3 4 29
				10 58 14 42 6 62 15 89 41 26 25 43 34 70 34 19 0 43 4 53 10 10 5 49 11 87
				11 37 1 79 7 93 14 52 26 99 35 174 35 63 0 87 -5 131 -26 30 -15 63 -35 74
				-45 17 -16 36 -19 111 -19 53 0 90 4 90 10 0 14 147 13 152 -1 2 -6 26 -15 54
				-20 28 -5 68 -18 89 -29 22 -11 50 -20 62 -20 13 0 23 -4 23 -10 0 -5 7 -10
				14 -10 8 0 27 -11 42 -25 15 -14 38 -25 52 -25 31 0 92 -21 92 -32 0 -4 7 -8
				16 -8 8 0 21 -6 29 -12 7 -7 27 -24 44 -37 17 -13 31 -29 31 -37 0 -8 4 -14 8
				-14 9 0 49 -31 105 -82 22 -21 44 -38 48 -38 4 0 11 -13 17 -28 5 -16 33 -53
				61 -83 38 -41 56 -70 71 -119 12 -36 29 -76 39 -90 24 -34 111 -217 111 -234
				0 -7 9 -25 20 -39 11 -14 20 -30 20 -36 0 -6 5 -11 10 -11 6 0 10 -6 10 -14 0
				-16 53 -76 67 -76 15 0 43 -35 43 -53 0 -9 20 -58 43 -109 24 -51 52 -113 61
				-138 23 -58 78 -173 87 -180 3 -3 9 -17 12 -31 4 -15 18 -37 32 -50 13 -13 25
				-31 25 -40 0 -8 7 -24 15 -35 8 -10 15 -31 15 -46 0 -15 6 -33 13 -40 8 -7 17
				-25 20 -40 4 -15 15 -35 26 -45 10 -10 28 -37 41 -60 13 -24 27 -43 31 -43 21
				0 50 -93 56 -177 3 -52 13 -105 24 -130 22 -48 25 -119 7 -125 -9 -3 -15 -51
				-20 -169 -7 -166 -14 -219 -28 -219 -5 0 -18 -21 -31 -46 -24 -50 -24 -83 1
				-329 10 -99 20 -295 19 -409 0 -68 -22 -162 -44 -186 -8 -9 -15 -24 -15 -33 0
				-10 -8 -17 -19 -17 -10 0 -24 -7 -31 -15 -7 -8 -17 -15 -22 -15 -9 0 -68 -39
				-78 -51 -19 -23 -76 -39 -143 -39 -68 0 -75 2 -87 25 -15 28 -47 42 -61 28 -6
				-6 -9 -43 -7 -84 l3 -74 44 -3 c26 -2 60 3 81 13 24 11 56 15 95 13 l60 -3 6
				-38 c3 -21 11 -43 18 -50 6 -6 11 -20 11 -32 0 -12 7 -30 15 -41 8 -10 15 -27
				15 -36 0 -29 67 -149 107 -192 21 -23 47 -54 58 -69 20 -27 55 -37 55 -16 0
				23 58 -49 65 -80 6 -27 13 -32 63 -47 31 -9 67 -20 80 -25 13 -5 34 -9 47 -9
				14 0 25 -4 25 -9 0 -5 28 -19 63 -31 110 -39 119 -43 136 -61 9 -9 52 -32 96
				-50 44 -18 82 -35 85 -39 3 -3 25 -12 50 -19 52 -15 128 -50 148 -68 7 -7 30
				-17 52 -23 24 -7 50 -24 68 -46 19 -23 43 -39 66 -44 l36 -8 0 2689 0 2689
				-3000 0 -3000 0 0 -3185z"/>
			</g> <!-- END BACKGROUND -->


			<rect class="label_background" width="425.0pt" height="20.0pt" />
			<text class="label" id="labelText">Loading data...</text>
		</svg>